<?xml version="1.0" encoding="iso-8859-1"?>
<!-- Generator: Adobe Illustrator 19.0.0, SVG Export Plug-In . SVG Version: 6.00 Build 0)  -->
<svg version="1.1" id="Layer_1" xmlns="http://www.w3.org/2000/svg" xmlns:xlink="http://www.w3.org/1999/xlink" x="0px" y="0px"
	 viewBox="0 0 512 512" style="enable-background:new 0 0 512 512;" xml:space="preserve">
<g>
	<path style="fill:#894BA2;" d="M255.999,167.666c-4.662,0-8.44-3.779-8.44-8.44V98.462c0-4.661,3.778-8.44,8.44-8.44
		s8.44,3.779,8.44,8.44v60.765C264.439,163.887,260.661,167.666,255.999,167.666z"/>
	<path style="fill:#894BA2;" d="M406.224,348.835H264.439v-41.071c0-4.661-3.778-8.44-8.44-8.44s-8.44,3.779-8.44,8.44v41.071
		H105.775c-4.662,0-8.44,3.779-8.44,8.44v55.876c0,4.661,3.778,8.44,8.44,8.44s8.44-3.779,8.44-8.44v-47.436h283.569v47.824
		c0,4.661,3.778,8.44,8.44,8.44s8.44-3.779,8.44-8.44v-56.264C414.663,352.614,410.886,348.835,406.224,348.835z"/>
</g>
<path style="fill:#3FC8F2;" d="M481.129,405.099h-149.81c-4.662,0-8.44,3.779-8.44,8.44v90.022c0,4.661,3.778,8.44,8.44,8.44H481.13
	c4.662,0,8.44-3.779,8.44-8.44v-90.022C489.568,408.878,485.791,405.099,481.129,405.099z"/>
<path style="fill:#0DAACE;" d="M481.129,405.099H447.37V512h33.758c4.662,0,8.44-3.779,8.44-8.44v-90.022
	C489.568,408.878,485.791,405.099,481.129,405.099z"/>
<path style="fill:#F77935;" d="M180.68,405.099H30.87c-4.662,0-8.44,3.779-8.44,8.44v90.022c0,4.661,3.778,8.44,8.44,8.44h149.811
	c4.662,0,8.44-3.779,8.44-8.44v-90.022C189.12,408.878,185.342,405.099,180.68,405.099z"/>
<path style="fill:#D9510D;" d="M180.68,405.099h-33.758V512h33.758c4.662,0,8.44-3.779,8.44-8.44v-90.022
	C189.12,408.878,185.342,405.099,180.68,405.099z"/>
<path style="fill:#FFDB56;" d="M372.083,226.473l-111.402-74.268c-2.836-1.89-6.528-1.89-9.362,0l-111.402,74.268
	c-2.348,1.565-3.758,4.2-3.758,7.022c0,2.822,1.41,5.456,3.758,7.022l111.402,74.268c1.418,0.945,3.049,1.418,4.681,1.418
	c1.632,0,3.263-0.473,4.681-1.418l111.402-74.268c2.348-1.565,3.758-4.2,3.758-7.022
	C375.841,230.672,374.431,228.037,372.083,226.473z"/>
<path style="fill:#FBA806;" d="M372.083,226.473l-111.402-74.268c-2.836-1.89-6.528-1.89-9.362,0l-17.36,11.573l94.043,62.695
	c2.348,1.565,3.758,4.2,3.758,7.022c0,2.822-1.41,5.456-3.758,7.022l-94.043,62.696l17.36,11.573
	c1.418,0.945,3.049,1.418,4.681,1.418c1.632,0,3.263-0.473,4.681-1.418l111.402-74.268c2.348-1.565,3.758-4.2,3.758-7.022
	C375.841,230.672,374.431,228.037,372.083,226.473z"/>
<path style="fill:#00D9C0;" d="M357.274,0H154.725c-4.662,0-8.44,3.779-8.44,8.44v90.022c0,4.661,3.778,8.44,8.44,8.44h202.549
	c4.662,0,8.44-3.779,8.44-8.44V8.44C365.714,3.779,361.936,0,357.274,0z"/>
<path style="fill:#1EA29F;" d="M357.274,0h-33.758v106.901h33.758c4.662,0,8.44-3.779,8.44-8.44V8.44
	C365.714,3.779,361.936,0,357.274,0z"/>
<g>
</g>
<g>
</g>
<g>
</g>
<g>
</g>
<g>
</g>
<g>
</g>
<g>
</g>
<g>
</g>
<g>
</g>
<g>
</g>
<g>
</g>
<g>
</g>
<g>
</g>
<g>
</g>
<g>
</g>
</svg>
