<svg height="512pt" viewBox="0 -31 512 512" width="512pt" xmlns="http://www.w3.org/2000/svg"><path d="m450.207031 0c-34.128906 0-61.792969 27.664062-61.792969 61.792969v35.308593h-370.757812c-9.738281.03125-17.6289062 7.917969-17.65625 17.65625v317.792969c.0273438 9.738281 7.917969 17.628907 17.65625 17.65625h432.550781c16.386719 0 32.105469-6.511719 43.695313-18.097656 11.585937-11.589844 18.097656-27.308594 18.097656-43.695313v-326.621093c0-16.386719-6.511719-32.105469-18.097656-43.695313-11.589844-11.585937-27.308594-18.097656-43.695313-18.097656zm0 0" fill="#b0d3f0"/><path d="m512 388.414062c0 16.386719-6.511719 32.105469-18.097656 43.695313-11.589844 11.585937-27.308594 18.097656-43.695313 18.097656h-432.550781c-9.738281-.027343-17.6289062-7.917969-17.65625-17.65625v-317.792969c.0273438-9.738281 7.917969-17.625 17.65625-17.65625h370.757812v291.3125c0-34.128906 27.664063-61.792968 61.792969-61.792968 34.128907 0 61.792969 27.664062 61.792969 61.792968zm0 0" fill="#2fa8cc"/><path d="m512 61.792969v326.621093c0-34.128906-27.664062-61.792968-61.792969-61.792968-34.128906 0-61.792969 27.664062-61.792969 61.792968v-326.621093c0-34.128907 27.664063-61.792969 61.792969-61.792969 34.128907 0 61.792969 27.664062 61.792969 61.792969zm0 0" fill="#b0d3f0"/><g fill="#285680"><path d="m150.070312 247.171875c-4.875 0-8.828124-3.953125-8.828124-8.828125v-17.652344c0-4.878906 3.953124-8.828125 8.828124-8.828125s8.828126 3.949219 8.828126 8.828125v17.652344c0 4.875-3.953126 8.828125-8.828126 8.828125zm0 0"/><path d="m150.070312 176.550781c-4.875 0-8.828124-3.953125-8.828124-8.828125v-35.308594c0-4.875 3.953124-8.828124 8.828124-8.828124s8.828126 3.953124 8.828126 8.828124v35.308594c0 4.875-3.953126 8.828125-8.828126 8.828125zm0 0"/><path d="m220.691406 317.792969h-17.65625c-4.875 0-8.828125-3.953125-8.828125-8.828125s3.953125-8.828125 8.828125-8.828125h17.65625c4.875 0 8.824219 3.953125 8.824219 8.828125s-3.949219 8.828125-8.824219 8.828125zm0 0"/><path d="m353.101562 317.792969h-79.445312c-4.875 0-8.828125-3.953125-8.828125-8.828125s3.953125-8.828125 8.828125-8.828125h79.445312c4.878907 0 8.828126 3.953125 8.828126 8.828125s-3.949219 8.828125-8.828126 8.828125zm0 0"/><path d="m150.070312 317.792969h-114.761718c-4.875 0-8.824219-3.953125-8.824219-8.828125s3.949219-8.828125 8.824219-8.828125h114.761718c4.875 0 8.828126 3.953125 8.828126 8.828125s-3.953126 8.828125-8.828126 8.828125zm0 0"/><path d="m317.792969 282.484375c-3.570313-.003906-6.789063-2.152344-8.152344-5.453125-1.367187-3.296875-.613281-7.09375 1.910156-9.617188l20.242188-20.242187h-181.722657c-4.875 0-8.828124-3.953125-8.828124-8.828125s3.953124-8.828125 8.828124-8.828125h203.03125c3.570313.003906 6.789063 2.152344 8.15625 5.453125 1.367188 3.296875.609376 7.09375-1.914062 9.617188l-35.308594 35.308593c-1.65625 1.65625-3.902344 2.585938-6.242187 2.589844zm0 0"/><path d="m203.035156 423.722656c-4.875 0-8.828125-3.949218-8.828125-8.824218v-84.625l-20.242187 20.242187c-3.464844 3.347656-8.96875 3.300781-12.375-.105469s-3.453125-8.910156-.105469-12.375l35.308594-35.3125c2.523437-2.523437 6.320312-3.277344 9.621093-1.910156 3.296876 1.363281 5.445313 4.582031 5.449219 8.152344v105.933594c0 4.875-3.953125 8.824218-8.828125 8.824218zm0 0"/><path d="m114.757812 282.484375c-3.570312-.003906-6.785156-2.152344-8.152343-5.453125-1.367188-3.296875-.613281-7.09375 1.910156-9.617188l35.3125-35.308593c3.464844-3.347657 8.96875-3.300781 12.375.105469s3.453125 8.910156.105469 12.375l-35.308594 35.308593c-1.65625 1.65625-3.898438 2.585938-6.242188 2.589844zm0 0"/><path d="m194.207031 211.863281c-2.003906 0-3.953125-.683593-5.515625-1.933593l-44.140625-35.3125c-3.808593-3.046876-4.421875-8.601563-1.375-12.410157 3.046875-3.808593 8.601563-4.425781 12.410157-1.378906l44.136718 35.3125c2.929688 2.339844 4.058594 6.277344 2.816406 9.816406-1.238281 3.539063-4.582031 5.90625-8.332031 5.90625zm0 0"/><path d="m256 353.101562c-2.339844 0-4.585938-.929687-6.242188-2.585937l-35.308593-35.308594c-3.347657-3.464843-3.296875-8.96875.105469-12.375 3.40625-3.40625 8.914062-3.453125 12.375-.109375l35.3125 35.3125c2.523437 2.523438 3.277343 6.320313 1.910156 9.617188-1.363282 3.300781-4.582032 5.449218-8.152344 5.449218zm0 0"/><path d="m70.621094 247.171875h-35.3125c-4.875 0-8.824219-3.953125-8.824219-8.828125s3.949219-8.828125 8.824219-8.828125h26.484375v-61.792969c0-4.875 3.953125-8.824218 8.828125-8.824218h26.480468v-26.484376c0-4.875 3.953126-8.828124 8.828126-8.828124s8.828124 3.953124 8.828124 8.828124v35.308594c0 4.875-3.953124 8.828125-8.828124 8.828125h-26.480469v61.792969c0 4.875-3.953125 8.828125-8.828125 8.828125zm0 0"/><path d="m353.101562 176.550781h-114.757812c-4.875 0-8.828125-3.953125-8.828125-8.828125v-35.308594c0-4.875 3.953125-8.828124 8.828125-8.828124s8.828125 3.953124 8.828125 8.828124v26.484376h105.929687c4.878907 0 8.828126 3.949218 8.828126 8.824218s-3.949219 8.828125-8.828126 8.828125zm0 0"/><path d="m353.101562 423.722656h-317.792968c-4.875 0-8.824219-3.949218-8.824219-8.824218v-282.484376c0-4.875 3.949219-8.828124 8.824219-8.828124h317.792968c4.878907 0 8.828126 3.953124 8.828126 8.828124v105.929688c0 4.875-3.949219 8.828125-8.828126 8.828125-4.875 0-8.824218-3.953125-8.824218-8.828125v-97.101562h-300.140625v264.828124h300.140625v-97.105468c0-4.875 3.949218-8.828125 8.824218-8.828125 4.878907 0 8.828126 3.953125 8.828126 8.828125v105.933594c0 4.875-3.949219 8.824218-8.828126 8.824218zm0 0"/></g></svg>