<?xml version="1.0" encoding="UTF-8"?>
<svg width="166px" height="191px" viewBox="0 0 166 191" version="1.1" xmlns="http://www.w3.org/2000/svg" xmlns:xlink="http://www.w3.org/1999/xlink">
    <!-- Generator: Sketch 59 (86127) - https://sketch.com -->
    <title>Artboard</title>
    <desc>Created with Sketch.</desc>
    <defs>
        <linearGradient x1="50%" y1="0%" x2="50%" y2="100%" id="linearGradient-1">
            <stop stop-color="#DEF5FD" offset="0%"></stop>
            <stop stop-color="#BAE7FA" offset="100%"></stop>
        </linearGradient>
    </defs>
    <g id="Artboard" stroke="none" stroke-width="1" fill="none" fill-rule="evenodd">
        <g id="guessjs" transform="translate(-1.000000, -1.000000)" fill-rule="nonzero">
            <g id="Group" transform="translate(0.644489, 0.775372)">
                <g transform="translate(0.310405, 0.046409)" id="Path">
                    <path d="M165.813636,81.0540951 C165.813636,125.546314 128.630938,161.637846 82.9255814,161.637846 C37.1134854,161.637846 0.03752732,125.546314 0.03752732,81.0540951 C0.03752732,36.4583832 37.1134854,0.36685102 82.9255814,0.36685102 C128.630938,0.36685102 165.813636,36.4583832 165.813636,81.0540951 Z" fill="url(#linearGradient-1)" opacity="0.2"></path>
                    <path d="M82.9255814,12.2450859 C124.739062,12.2450859 158.755601,46.1639737 158.755601,88.075105 C158.755601,129.888973 124.739062,163.807861 82.9255814,163.807861 C41.0144501,163.807861 7.09556225,129.888973 7.09556225,88.075105 C7.09556225,46.1639737 41.0144501,12.2450859 82.9255814,12.2450859 Z" fill="#2799EB"></path>
                    <path d="M66.5508791,162.053249 C32.5347281,154.645747 7.09556225,124.333347 7.09556225,88.075105 C7.09556225,51.7196001 32.5343406,21.4072001 66.5508791,13.9996982 C100.56703,21.4072001 126.103459,51.7196001 126.103459,88.075105 C126.103459,124.332959 100.567418,154.645747 66.5508791,162.053249 Z" fill="#47C6FF"></path>
                    <path d="M82.9255814,170.338057 L22.1058675,170.338057 C11.8719207,173.067238 5.92607905,179.792348 4.56168198,190.806338 L82.9255814,190.806338 L161.289481,190.806338 C159.924696,179.792348 153.881979,173.067238 143.648032,170.338057 L82.9255814,170.338057 Z" fill="#2C3337"></path>
                    <path d="M82.9255814,154.061005 L42.281584,154.061005 C33.5096849,154.548484 22.6906091,159.616632 22.1058675,170.43532 L82.9255814,170.43532 L143.648032,170.43532 C143.160554,159.616244 132.244215,154.548096 123.471928,154.061005 L82.9255814,154.061005 Z" fill="#40494C"></path>
                </g>
                <path d="M50.8535415,44.3610057 C52.8755895,51.0171181 58.0845028,56.2260315 64.7406153,58.2480795 C71.6787821,60.5679619 71.6787821,62.8771041 64.7406153,65.1755061 C58.0845028,67.1975541 52.8755895,72.4064674 50.8535415,79.0625799 C48.5336591,86.0007467 46.2245169,86.0007467 43.9261149,79.0625799 C41.9040669,72.4064674 36.6951535,67.1975541 30.0390411,65.1755061 C23.1008743,62.8556237 23.1008743,60.5464815 30.0390411,58.2480795 C36.6951535,56.2260315 41.9040669,51.0171181 43.9261149,44.3610057 C46.2245169,37.4013585 48.5336591,37.4013585 50.8535415,44.3610057 Z" id="Path" fill="#FFFFFF"></path>
            </g>
        </g>
    </g>
</svg>