<?xml version="1.0" encoding="UTF-8"?>
<svg width="66px" height="78px" viewBox="0 0 66 78" version="1.1" xmlns="http://www.w3.org/2000/svg" xmlns:xlink="http://www.w3.org/1999/xlink">
    <!-- Generator: Sketch 58 (84663) - https://sketch.com -->
    <title>Artboard</title>
    <desc>Created with Sketch.</desc>
    <g id="Artboard" stroke="none" stroke-width="1" fill="none" fill-rule="evenodd">
        <path d="M64.4,25.8 C66.5,20.6 66.6,9.8 63.7,1.4 C63,-0.1 60.7,0.3 60.6,2.1 L60.6,2.7 C60.1,10.6 57.2,14.9 53,16.9 C52.3,17.2 51.2,17.1 50.5,16.7 C45.4,13.5 39.5,11.6 33,11.6 C26.5,11.6 20.6,13.5 15.5,16.7 C14.8,17.1 14,17.2 13.3,16.9 C9,15.3 5.9,10.5 5.4,2.6 L5.4,2.1 C5.4,0.5 3.1,4.4408921e-15 2.3,1.4 C-0.7,9.7 -0.6,20.5 1.6,25.8 C2.7,28.4 2.7,31.4 1.8,34.1 C0.6,37.5 1.77635684e-15,41.3 0.1,45.1 C0.4,62.5 15.2,77.3 32.5,77.5 C50.8,77.7 65.8,62.9 65.8,44.6 C65.8,40.9 65.2,37.4 64.1,34.1 C63.3,31.4 63.4,28.4 64.4,25.8 L64.4,25.8 Z" id="Path" fill="#FFFFFF" fill-rule="nonzero"></path>
        <circle id="Oval" fill="#102954" fill-rule="nonzero" cx="33" cy="44.5" r="25"></circle>
        <path d="M36.9,41.9 L31,32.8 C30,31.3 28.1,30.9 26.6,31.8 C25.7,32.4 25.1,33.4 25.1,34.5 C25.1,35.1 25.3,35.7 25.7,36.2 L29.7,42.4 C30,42.9 29.9,43.5 29.6,43.9 L23.4,50.7 C22.3,52 22.3,54 23.6,55.2 C24.2,55.8 25,56 25.8,56 C26.7,56 27.5,55.6 28.1,54.9 L32.7,49.5 C33,49.1 33.7,49.1 34,49.6 L37.3,54.3 C37.5,54.6 37.8,55 38.2,55.3 C39.3,56.1 40.7,56 41.7,55.4 C42.6,54.8 43.2,53.8 43.2,52.7 C43.2,52.1 43,51.5 42.7,51 L36.9,41.9 Z" id="Path" fill="#FFFFFF" fill-rule="nonzero"></path>
    </g>
</svg>