<?xml version="1.0" encoding="UTF-8"?>
<svg width="72px" height="80px" viewBox="0 0 72 80" version="1.1" xmlns="http://www.w3.org/2000/svg" xmlns:xlink="http://www.w3.org/1999/xlink">
    <!-- Generator: Sketch 58 (84663) - https://sketch.com -->
    <title>Artboard</title>
    <desc>Created with Sketch.</desc>
    <g id="Artboard" stroke="none" stroke-width="1" fill="none" fill-rule="evenodd">
        <rect id="Rectangle" fill="#FFFFFF" x="11" y="7" width="48" height="65"></rect>
        <g id="heroku" fill="#430098" fill-rule="nonzero">
            <path d="M64.8,0 L7.2,0 C3.224,0 0,3.224 0,7.2 L0,72.8 C0,76.776 3.224,80 7.2,80 L64.8,80 C68.776,80 72,76.776 72,72.8 L72,7.2 C72,3.224 68.776,0 64.8,0 Z M18,68 L18,52 L27,60 L18,68 Z M46,68 L46,44.11 C45.961,42.243 45.062,40 41,40 C32.866,40 23.742,44.091 23.651,44.132 L18,46.692 L18,12 L26,12 L26,34.711 C29.994,33.411 35.577,32 41,32 C45.945,32 48.905,33.944 50.517,35.575 C53.958,39.055 54.005,43.488 54.0002258,44 L54.0002258,68 L46,68 Z M48,25 L40,25 C43.144,20.875 45.118,16.534 46,12 L54,12 C53.46,16.544 51.618,20.9 48,25 Z" id="Shape"></path>
        </g>
    </g>
</svg>