<?xml version="1.0" encoding="iso-8859-1"?>
<!-- Generator: Adobe Illustrator 19.0.0, SVG Export Plug-In . SVG Version: 6.00 Build 0)  -->
<svg version="1.1" id="Layer_1" xmlns="http://www.w3.org/2000/svg" xmlns:xlink="http://www.w3.org/1999/xlink" x="0px" y="0px"
	 viewBox="0 0 498.397 498.397" style="enable-background:new 0 0 498.397 498.397;" xml:space="preserve">
<path id="SVGCleanerId_0" style="fill:#91ADB5;" d="M261.014,349.318V246.957c0-6.798-5.018-12.312-11.823-12.312
	c-6.79,0-11.808,5.514-11.808,12.312v113.916c0,6.798,5.262,12.312,12.052,12.312c0.78,0,1.426-0.079,2.15-0.228
	c26.396,1.197,47.443,22.985,47.443,49.664c0,27.443-22.363,51.145-49.814,51.145c-27.435,0-49.798-24.781-49.798-48.412h-24.639
	c0,39.385,33.39,73.043,74.413,73.043c41.031,0,74.169-34.068,74.169-75.091C323.352,386.473,300.399,355.21,261.014,349.318z"/>
<g>
	<path id="SVGCleanerId_0_1_" style="fill:#91ADB5;" d="M261.014,349.318V246.957c0-6.798-5.018-12.312-11.823-12.312
		c-6.79,0-11.808,5.514-11.808,12.312v113.916c0,6.798,5.262,12.312,12.052,12.312c0.78,0,1.426-0.079,2.15-0.228
		c26.396,1.197,47.443,22.985,47.443,49.664c0,27.443-22.363,51.145-49.814,51.145c-27.435,0-49.798-24.781-49.798-48.412h-24.639
		c0,39.385,33.39,73.043,74.413,73.043c41.031,0,74.169-34.068,74.169-75.091C323.352,386.473,300.399,355.21,261.014,349.318z"/>
</g>
<g>
	<path style="fill:#A8C6CC;" d="M249.435,347.876c0.78,0,1.174-0.095,1.906-0.228c3.466,0.158,9.673,0.685,9.673,1.504v-25.143
		v-77.052c0-6.798-5.018-12.312-11.823-12.312c-6.79,0-11.808,5.514-11.808,12.312v88.608
		C237.383,342.363,242.645,347.876,249.435,347.876z"/>
	<path style="fill:#A8C6CC;" d="M322.462,409.797c-5.278-30.247-26.002-53.988-58.99-60.062
		c20.496,6.152,35.501,25.104,35.501,47.569c0,4.372-0.622,8.602-1.701,12.642c1.079,4.049,1.701,8.279,1.701,12.666
		c0,22.552-15.1,42.921-35.714,49.01C293.53,465.81,317.287,440.304,322.462,409.797z"/>
	<path style="fill:#A8C6CC;" d="M199.417,425.354h-20.102c8.83,23.631,33.674,42.252,59.573,47.23
		C218.282,466.495,199.417,448.985,199.417,425.354z"/>
</g>
<path style="fill:#608387;" d="M292.522,265.429c0,4.537-0.315,10.264-4.836,10.264h-76.973c-4.545,0-4.836-5.727-4.836-10.264
	v-27.711c0-4.545,0.291-9.287,4.829-9.287h76.973c4.529,0,4.844,4.742,4.844,9.287V265.429z"/>
<path style="fill:#86AAB2;" d="M388.675,115.68L326.424,8.255C323.352,2.907,317.633,0,311.442,0H186.963
	c-6.199,0-11.91,2.907-14.99,8.255L109.738,115.87c-3.104,5.348-3.104,11.839,0,17.195l62.236,109.08
	c3.072,5.356,8.791,9.917,14.99,9.917H311.45c6.191,0,11.902-4.608,14.982-9.972l62.251-108.473
	C391.755,128.268,391.755,121.021,388.675,115.68z"/>
<path style="fill:#71989E;" d="M326.424,8.255C323.352,2.907,317.633,0,311.442,0H186.963c-6.199,0-11.91,2.907-14.99,8.255
	L140.93,61.826l184.005,182.516c1.071-1.056,1.103-1.568,1.859-2.899l61.873-108.457c3.08-5.356,3.08-11.76,0-17.101L326.424,8.255z
	"/>
<g>
</g>
<g>
</g>
<g>
</g>
<g>
</g>
<g>
</g>
<g>
</g>
<g>
</g>
<g>
</g>
<g>
</g>
<g>
</g>
<g>
</g>
<g>
</g>
<g>
</g>
<g>
</g>
<g>
</g>
</svg>
