<?xml version="1.0" encoding="UTF-8"?>
<svg width="512px" height="512px" viewBox="0 0 512 512" version="1.1" xmlns="http://www.w3.org/2000/svg" xmlns:xlink="http://www.w3.org/1999/xlink">
    <!-- Generator: Sketch 61.2 (89653) - https://sketch.com -->
    <title>Artboard</title>
    <desc>Created with Sketch.</desc>
    <g id="Artboard" stroke="none" stroke-width="1" fill="none" fill-rule="evenodd">
        <g id="animation" fill-rule="nonzero">
            <path d="M501.752,10.001 C501.752,10.001 499.822,63.831 477.452,127.121 L384.632,34.301 C447.922,11.931 501.752,10.001 501.752,10.001 Z" id="Path" fill="#FF5249"></path>
            <path d="M384.632,34.301 L477.452,127.121 C462.912,168.301 439.702,213.481 402.762,250.421 C368.721,284.462 327.769,311.711 284.952,330.601 L181.152,226.801 C193.792,198.151 211.432,167.581 234.742,138.631 C242.902,128.501 251.752,118.571 261.332,108.991 C298.272,72.051 343.452,48.841 384.632,34.301 Z" id="Path" fill="#FFFFFF"></path>
            <path d="M388.612,123.141 C404.232,138.761 404.232,164.091 388.612,179.711 C372.992,195.331 347.672,195.331 332.042,179.711 C316.422,164.081 316.422,138.761 332.042,123.141 C347.662,107.521 372.992,107.521 388.612,123.141 Z" id="Path" fill="#7BD8E8"></path>
            <g id="Group" transform="translate(105.000000, 122.000000)" fill="#FF5249">
                <path d="M269.472,156.701 C321.012,234.011 224.532,283.981 170.482,283.981 C198.762,255.701 190.502,219.151 190.502,219.151 L179.952,208.601 C208.602,195.961 239.172,178.321 268.122,155.011 L269.472,156.701 Z" id="Path"></path>
                <path d="M64.532,178.041 L62.912,176.421 C58.132,171.631 55.782,164.691 57.462,158.131 C61.632,141.891 67.792,123.771 76.152,104.801 L179.952,208.601 C160.982,216.961 142.862,223.121 126.622,227.291 C120.062,228.971 113.122,226.621 108.332,221.841 L106.712,220.221 L64.532,178.041 Z" id="Path"></path>
                <path d="M128.052,15.281 L129.742,16.631 C106.432,45.581 88.792,76.151 76.152,104.801 L65.602,94.251 C65.602,94.251 29.052,85.991 0.772,114.271 C0.772,60.221 50.742,-36.259 128.052,15.281 Z" id="Path"></path>
            </g>
            <path d="M169.532,300.041 L211.712,342.221 C208.682,354.211 201.492,366.831 190.622,377.701 C167.192,401.131 105.772,405.981 105.772,405.981 C105.772,405.981 110.622,344.561 134.052,321.131 C144.922,310.261 157.542,303.071 169.532,300.041 Z" id="Path" fill="#FFDD78"></path>
            <path d="M268.662,257.491 C272.562,253.581 272.562,247.251 268.662,243.351 C264.752,239.441 258.422,239.441 254.512,243.351 C250.612,247.251 250.612,253.581 254.512,257.491 C258.422,261.391 264.752,261.391 268.662,257.491 Z" id="Path" fill="#000000"></path>
            <path d="M395.933,186.782 C415.471,167.244 415.475,135.611 395.933,116.07 C376.393,96.531 344.761,96.53 325.22,116.07 C305.731,135.559 305.73,167.279 325.223,186.784 C344.719,206.268 376.439,206.276 395.933,186.782 Z M339.363,130.212 C351.086,118.489 370.066,118.487 381.791,130.212 C393.514,141.934 393.516,160.915 381.791,172.639 C370.098,184.333 351.064,184.333 339.365,172.641 C327.67,160.939 327.669,141.905 339.363,130.212 Z" id="Shape" fill="#000000"></path>
            <path d="M102.194,245.509 C103.431,246.022 104.731,246.271 106.019,246.271 C108.622,246.271 111.179,245.254 113.092,243.342 C133.175,223.259 157.946,224.515 166.038,225.579 L169.54,229.081 C162.648,245.481 157.096,261.789 153.024,277.65 C151.554,283.39 152.05,289.464 154.235,295.02 C144.607,299.457 135.318,305.972 127.23,314.06 C101.489,339.802 96.262,402.536 96.052,405.194 C95.822,408.111 96.88,410.983 98.949,413.052 C100.832,414.934 103.379,415.981 106.019,415.981 C106.281,415.981 106.544,415.971 106.807,415.95 C109.465,415.741 172.201,410.514 197.942,384.773 C206.027,376.688 212.541,367.4 216.978,357.774 C222.86,360.087 228.914,360.372 234.358,358.977 C250.212,354.906 266.518,349.356 282.92,342.463 L286.422,345.965 C287.485,354.058 288.741,378.829 268.659,398.91 C265.8,401.77 264.944,406.071 266.492,409.807 C268.039,413.544 271.685,415.981 275.73,415.981 C315.31,415.981 370.645,392.409 391.025,354.328 C399.876,337.791 405.902,311.629 386.684,278.98 C394.831,272.094 402.678,264.894 410.08,257.492 C443.1,224.472 469.022,181.729 487.128,130.453 C509.748,66.455 511.911,12.619 511.992,10.359 C512.092,7.584 511.033,4.893 509.07,2.929 C507.106,0.966 504.426,-0.098 501.64,0.007 C499.379,0.088 445.544,2.252 381.549,24.871 C330.269,42.977 287.526,68.9 254.507,101.92 C247.108,109.319 239.908,117.165 233.019,125.316 C200.371,106.098 174.209,112.124 157.67,120.975 C119.589,141.355 96.018,196.691 96.018,236.271 C96.018,240.315 98.458,243.962 102.194,245.509 Z M183.8,370.63 C170.05,384.38 137.795,391.632 117.408,394.593 C120.37,374.205 127.623,341.951 141.372,328.202 C149.072,320.502 158,314.664 166.974,311.376 L200.626,345.028 C197.338,354.002 191.501,362.93 183.8,370.63 Z M229.39,339.603 C226.496,340.344 223.144,339.256 220.652,336.768 C172.111,288.228 234.422,350.539 175.24,291.356 C172.746,288.857 171.658,285.506 172.397,282.617 C175.6,270.143 179.789,257.345 184.883,244.424 L267.578,327.119 C254.655,332.214 241.859,336.402 229.39,339.603 Z M373.394,344.891 C360.292,369.37 327.304,387.414 297.242,393.625 C306.827,375.588 308.94,352.627 305.438,338.704 C304.625,335.47 302.515,333.844 302.397,333.653 C326.63,321.916 349.579,307.835 370.883,291.638 C381.29,310.652 382.147,328.535 373.394,344.891 Z M473.311,108.587 L403.415,38.691 C441.496,26.863 474.625,22.434 491.161,20.842 C489.568,37.381 485.138,70.51 473.311,108.587 Z M268.653,116.062 C298.278,86.436 336.512,62.858 382.324,45.886 L466.116,129.678 C449.146,175.489 425.568,213.723 395.94,243.35 C386.929,252.36 377.226,261.065 367.1,269.222 C342.758,288.822 315.966,305.424 287.382,318.64 L193.362,224.622 C206.578,196.036 223.18,169.244 242.778,144.905 C250.942,134.772 259.646,125.068 268.653,116.062 Z M167.111,138.608 C183.47,129.854 201.351,130.712 220.363,141.119 C204.166,162.421 190.085,185.371 178.348,209.606 C178.199,209.514 176.399,207.251 173.055,206.497 C171.68,206.186 145.221,200.495 118.376,214.762 C124.588,184.699 142.631,151.71 167.111,138.608 Z" id="Shape" fill="#000000"></path>
            <path d="M212.093,455.481 L240.373,427.191 C244.277,423.285 244.276,416.953 240.371,413.049 C236.464,409.144 230.132,409.146 226.228,413.051 L197.948,441.341 C194.044,445.247 194.045,451.579 197.95,455.483 C201.857,459.387 208.189,459.387 212.093,455.481 Z" id="Path" fill-opacity="0.5" fill="#FFFFFF"></path>
            <path d="M70.661,314.053 L98.951,285.773 C102.857,281.869 102.858,275.537 98.954,271.631 C95.05,267.725 88.719,267.725 84.812,271.629 L56.522,299.909 C52.616,303.813 52.615,310.145 56.519,314.051 C60.422,317.955 66.753,317.959 70.661,314.053 Z" id="Path" fill-opacity="0.5" fill="#FFFFFF"></path>
            <path d="M155.521,427.199 L87.781,494.929 C83.875,498.834 83.875,505.166 87.78,509.071 C91.683,512.976 98.016,512.978 101.922,509.072 L169.662,441.342 C173.568,437.437 173.568,431.105 169.663,427.2 C165.76,423.295 159.427,423.295 155.521,427.199 Z" id="Path" fill-opacity="0.5" fill="#FFFFFF"></path>
            <path d="M75.521,427.199 L7.781,494.929 C3.875,498.834 3.875,505.166 7.78,509.071 C11.683,512.976 18.016,512.978 21.922,509.072 L89.662,441.342 C93.568,437.437 93.568,431.105 89.663,427.2 C85.759,423.295 79.426,423.295 75.521,427.199 Z" id="Path" fill-opacity="0.5" fill="#FFFFFF"></path>
            <path d="M17.073,424.221 L84.803,356.481 C88.708,352.575 88.708,346.244 84.802,342.338 C80.898,338.434 74.565,338.434 70.66,342.339 L2.93,410.079 C-0.975,413.985 -0.975,420.316 2.931,424.222 C6.836,428.127 13.168,428.127 17.073,424.221 Z" id="Path" fill-opacity="0.5" fill="#FFFFFF"></path>
            <path d="M296.943,229.202 L311.083,215.062 C314.988,211.157 314.988,204.825 311.083,200.919 C307.177,197.014 300.847,197.014 296.94,200.919 L282.8,215.059 C278.895,218.964 278.895,225.296 282.8,229.202 C286.706,233.107 293.037,233.107 296.943,229.202 Z" id="Path" fill="#000000"></path>
        </g>
    </g>
</svg>