<?xml version="1.0" encoding="iso-8859-1"?>
<!-- Generator: Adobe Illustrator 19.0.0, SVG Export Plug-In . SVG Version: 6.00 Build 0)  -->
<svg version="1.1" id="Layer_1" xmlns="http://www.w3.org/2000/svg" xmlns:xlink="http://www.w3.org/1999/xlink" x="0px" y="0px"
	 viewBox="0 0 512 512" style="enable-background:new 0 0 512 512;" xml:space="preserve">
<polygon style="fill:#F5F7FA;" points="332,18 90.664,11.344 55.336,24.672 58,416.672 345.344,401.344 345.344,94.672 "/>
<path style="fill:#434A54;" d="M342,416.672c-2.031-13.031-282,0-282,0l-4.664,32.656L60,490.656L88.664,502h231.992l24.688-28.656
	C345.344,473.344,344.031,429.703,342,416.672z"/>
<path style="fill:#656D78;" d="M432,328l-155.344,64.672l20,56.656c0,0,150-62,157.344-66S432,328,432,328z"/>
<path style="fill:#F5F7FA;" d="M215.75,455.5c0,10.625-8.617,19.25-19.25,19.25s-19.25-8.625-19.25-19.25s8.617-19.25,19.25-19.25
	S215.75,444.875,215.75,455.5z"/>
<rect x="96" y="54" style="fill:#AC92EB;" width="82.66" height="85.34"/>
<rect x="94.59" y="170.66" style="fill:#A0D468;" width="82.66" height="85.34"/>
<rect x="96" y="287.98" style="fill:#FFCE54;" width="82.66" height="85.34"/>
<polygon style="fill:#EAC6BB;" points="377.344,152.016 350.656,126.344 328.656,131.344 324,162.672 296.656,134.016 270,132.672 
	266,170.016 245.336,143.344 215.336,146.016 208.664,170.016 161.461,82.672 140,82.672 123.336,98.672 137.336,148.672 
	206.664,284.672 137.336,268.672 146,316.672 256,374.016 271.336,392.672 417.344,324.016 "/>
<rect x="215.75" y="56.656" style="fill:#4FC2E9;" width="82.66" height="85.34"/>
<path d="M225.461,458.656c0-17.656-14.328-32-32-32s-32,14.344-32,32c0,17.688,14.328,32,32,32S225.461,476.344,225.461,458.656z
	 M193.461,469.328c-5.883,0-10.664-4.781-10.664-10.672c0-5.875,4.781-10.656,10.664-10.656s10.664,4.781,10.664,10.656
	C204.125,464.547,199.344,469.328,193.461,469.328z"/>
<path d="M433.031,310.656l-4.781,2.125c-24.375-127.562-48.984-175.016-52.031-180.562c-4.562-9.812-13-16.891-22.75-19.453v-70.11
	C353.469,19.094,334.359,0,310.797,0h-224C63.234,0,44.125,19.094,44.125,42.656v426.672C44.125,492.89,63.234,512,86.797,512h224
	c23.562,0,42.672-19.109,42.672-42.672v-29.609l114.406-51.156L433.031,310.656z M340.406,134.156
	c1.625-0.75,3.297-1.109,4.953-1.109c4.859,0,9.297,3.203,11.609,8.359l0.219,0.5l0.266,0.453
	c0.266,0.453,25.672,45.766,50.797,179.391l-129.062,57.719l-6.469-7.172l-121.5-65.797c-4.023-2.188-6.945-5.781-8.227-10.156
	c-1.289-4.375-0.773-9,1.445-13.031c3.062-5.578,8.93-9.031,15.312-9.031c2.883,0,5.641,0.688,8.188,2.062l53.266,28.875
	l-87.844-196.406c-1.836-4.094-0.648-8.125,0.219-10.141c1.57-3.641,4.461-6.625,7.938-8.172c1.945-0.875,4.172-1.344,6.445-1.344
	c4.852,0,10.766,2.266,13.016,7.312l37.477,83.781l0,0l17.953,40.125h0.008c0.023,0.062,0.047,0.125,0.07,0.188
	c2.406,5.375,8.711,7.781,14.094,5.375c5.375-2.406,7.789-8.719,5.383-14.094c-0.031-0.062-0.062-0.109-0.086-0.172h0.008
	l-18.172-40.641c-1.719-3.844-0.336-7.969,0.648-10.062c1.805-3.875,5.031-7.125,8.625-8.75c0.312-0.125,0.633-0.25,0.945-0.375
	l0.516-0.188c2.008-0.859,4.344-1.312,6.758-1.312c5.148,0,11.305,2.141,13.438,6.922l18.156,40.578h0.008
	c0.023,0.062,0.039,0.125,0.062,0.172c2.406,5.375,8.727,7.797,14.102,5.391s7.781-8.719,5.375-14.094
	c-0.031-0.062-0.062-0.125-0.094-0.172l0.016-0.016l-10.828-24.203l0,0c-2.75-6.172,1.906-15.516,9.406-18.859
	c2.062-0.938,4.469-1.406,6.969-1.406c5.094,0,11.219,2.156,13.375,6.969L310,162.406l0,0l6,13.422h0.016
	c0.016,0.047,0.047,0.109,0.078,0.172c2.406,5.375,8.703,7.781,14.094,5.375c5.375-2.406,7.781-8.703,5.375-14.094
	c-0.031-0.047-0.062-0.094-0.094-0.156h0.016l-6.016-13.438l0,0C326.875,147.875,332.594,137.641,340.406,134.156z M141.062,325.25
	l31.062,16.828v20.578h-64v-64h13.508c0.234,1.25,0.531,2.484,0.891,3.719C125.422,312.219,132.008,320.359,141.062,325.25z
	 M108.125,245.328v-64h34.297l28.625,64H108.125z M113.883,117.531L118.57,128h-10.445V64h64v12.609
	c-6.375-5.547-14.945-8.781-24.164-8.781c-5.25,0-10.492,1.109-15.156,3.188c-8.305,3.719-15.172,10.734-18.828,19.234
	C110.094,99.281,110.062,108.969,113.883,117.531z M225.461,128V64h64.008v59.391c-4.672,0.266-9.25,1.359-13.344,3.188
	c-0.953,0.422-1.875,0.922-2.797,1.422h-47.867V128z M65.461,42.656c0-11.75,9.57-21.328,21.336-21.328h224
	c11.766,0,21.328,9.578,21.328,21.328V114.5c-0.141,0.062-0.281,0.109-0.438,0.188c-6.984,3.109-13.281,8.688-17.688,15.438
	c-1.031-0.719-2.094-1.391-3.203-2V53.328c0-5.891-4.766-10.672-10.672-10.672h-85.328c-5.891,0-10.672,4.781-10.672,10.672v85.328
	c0,1.031,0.148,2,0.414,2.938l-11.078-24.766v-63.5c0-5.891-4.773-10.672-10.664-10.672H97.461c-5.891,0-10.664,4.781-10.664,10.672
	v85.328c0,5.906,4.773,10.672,10.664,10.672h30.648L132.883,160H97.461c-5.891,0-10.664,4.781-10.664,10.656V256
	c0,5.891,4.773,10.656,10.664,10.656h32.656c-1.648,1.953-3.117,4.078-4.375,6.375c-0.773,1.406-1.445,2.844-2.031,4.297h-26.25
	c-5.891,0-10.664,4.781-10.664,10.672v85.328c0,5.891,4.773,10.672,10.664,10.672h85.336c5.891,0,10.664-4.781,10.664-10.672
	v-19.703l10.664,5.781v13.922c0,5.891,4.781,10.672,10.672,10.672h34.727l8.836,4.781l-1.828,0.812l7.031,15.734H65.461V42.656z
	 M332.125,469.328c0,11.766-9.562,21.328-21.328,21.328H193.461H86.797c-11.766,0-21.336-9.562-21.336-21.328v-42.672h128h79.648
	l18.266,40.844l40.75-18.234V469.328z M302.125,439.312l-17.406-38.953l137.531-61.516l17.438,38.938L302.125,439.312z"/>
<g>
</g>
<g>
</g>
<g>
</g>
<g>
</g>
<g>
</g>
<g>
</g>
<g>
</g>
<g>
</g>
<g>
</g>
<g>
</g>
<g>
</g>
<g>
</g>
<g>
</g>
<g>
</g>
<g>
</g>
</svg>
