<?xml version="1.0" encoding="UTF-8"?>
<svg width="496px" height="496px" viewBox="0 0 496 496" version="1.1" xmlns="http://www.w3.org/2000/svg" xmlns:xlink="http://www.w3.org/1999/xlink">
    <!-- Generator: Sketch 59 (86127) - https://sketch.com -->
    <title>Artboard</title>
    <desc>Created with Sketch.</desc>
    <g id="Artboard" stroke="none" stroke-width="1" fill="none" fill-rule="evenodd">
        <path d="M248,40 C362.953,40 456,133.029 456,248 C456,362.953 362.971,456 248,456 C133.047,456 40,362.971 40,248 C40,133.047 133.029,40 248,40 M248,0 C111.033,0 0,111.033 0,248 C0,384.967 111.033,496 248,496 C384.967,496 496,384.967 496,248 C496,111.033 384.967,0 248,0 Z M248,56 C141.961,56 56,141.961 56,248 C56,354.039 141.961,440 248,440 C354.039,440 440,354.039 440,248 C440,141.961 354.039,56 248,56 Z M248,100 C267.882,100 284,116.118 284,136 C284,155.882 267.882,172 248,172 C228.118,172 212,155.882 212,136 C212,116.118 228.118,100 248,100 Z M365.741,198.023 C337.029,204.802 310.23,210.771 283.601,213.83 C284.452,314.853 295.907,336.882 308.638,369.451 C312.255,378.711 307.681,389.149 298.421,392.766 C289.16,396.383 278.722,391.809 275.105,382.549 C266.4,360.241 258.019,341.913 252.844,304 L243.158,304 C237.991,341.851 229.624,360.208 220.896,382.549 C217.281,391.804 206.846,396.385 197.581,392.766 C188.321,389.149 183.747,378.71 187.364,369.451 C200.077,336.91 211.549,314.91 212.401,213.83 C185.772,210.772 158.973,204.803 130.26,198.023 C121.66,195.992 116.334,187.375 118.365,178.774 C120.396,170.173 129.012,164.848 137.614,166.879 C234.3,189.708 261.897,189.662 358.389,166.879 C366.988,164.849 375.607,170.173 377.638,178.774 C379.667,187.375 374.341,195.993 365.741,198.023 L365.741,198.023 Z" id="Shape" fill="#007AFF" fill-rule="nonzero"></path>
    </g>
</svg>