<?xml version="1.0" encoding="UTF-8"?>
<svg width="20px" height="16px" viewBox="0 0 20 16" version="1.1" xmlns="http://www.w3.org/2000/svg" xmlns:xlink="http://www.w3.org/1999/xlink">
    <!-- Generator: Sketch 58 (84663) - https://sketch.com -->
    <title>Artboard</title>
    <desc>Created with Sketch.</desc>
    <g id="Artboard" stroke="none" stroke-width="1" fill="none" fill-rule="evenodd">
        <path d="M9.10542775,14.4307857 C11.6341217,13.9840864 13.7226785,13.6144428 13.7466659,13.6093559 L13.7902799,13.6001065 L11.4029435,10.7604449 C10.0899095,9.19863072 9.01560836,7.91472722 9.01560836,7.90732614 C9.01560836,7.89331367 11.4807348,1.10488828 11.4945929,1.08072048 C11.4992263,1.07266273 13.1768198,3.96898174 15.5611894,8.10160595 C17.79348,11.9706428 19.6338953,15.1606775 19.6510014,15.1905706 L19.6821046,15.2449226 L12.0949528,15.243944 L4.50780236,15.2429693 L9.10542775,14.4307885 L9.10542775,14.4307857 Z" id="path21-path" fill="#0089D6" fill-rule="nonzero"></path>
        <path d="M-4.03864498e-06,13.5648257 C-4.03864498e-06,13.5608276 1.12489729,11.6080872 2.49977664,9.22540093 L4.99955692,4.89324447 L7.91276187,2.44847697 C9.51502457,1.10385514 10.8302816,0.00206605675 10.8355547,1.42683849e-06 C10.8408278,-0.00195234024 10.8197505,0.0510967856 10.788716,0.117944357 C10.7576815,0.184791929 9.33418278,3.23804682 7.62538542,6.90295497 L4.51848188,13.5664242 L2.25923892,13.5692567 C1.01665557,13.5708161 -4.03864498e-06,13.5688191 -4.03864498e-06,13.5648241 L-4.03864498e-06,13.5648257 Z" id="path21-path" fill="#0089D6" fill-rule="nonzero"></path>
    </g>
</svg>