<?xml version="1.0" encoding="UTF-8"?>
<svg width="256px" height="291px" viewBox="0 0 256 291" version="1.1" xmlns="http://www.w3.org/2000/svg" xmlns:xlink="http://www.w3.org/1999/xlink">
    <!-- Generator: Sketch 58 (84663) - https://sketch.com -->
    <title>Artboard</title>
    <desc>Created with Sketch.</desc>
    <g id="Artboard" stroke="none" stroke-width="1" fill="none" fill-rule="evenodd">
        <polygon id="Path" fill="#264DE4" fill-rule="nonzero" points="127.843868 290.087912 23.6617143 261.166242 0.445186813 0.7657143 255.554813 0.7657143 232.31367 261.125451"></polygon>
        <polygon id="Path" fill="#2965F1" fill-rule="nonzero" points="212.416703 244.546637 232.277802 22.0573187 128 22.0573187 128 267.950242"></polygon>
        <polygon id="Path" fill="#EBEBEB" fill-rule="nonzero" points="53.6685714 118.636132 56.530989 150.572835 128 150.572835 128 118.636132"></polygon>
        <polygon id="Path" fill="#EBEBEB" fill-rule="nonzero" points="47.917011 53.994725 50.8202198 85.932132 128 85.932132 128 53.994725"></polygon>
        <polygon id="Path" fill="#EBEBEB" fill-rule="nonzero" points="128 201.580132 127.860044 201.617407 92.2915165 192.013187 90.0177582 166.54189 57.957978 166.54189 62.4323516 216.687648 127.853011 234.848879 128 234.808088"></polygon>
        <polygon id="Path" fill="#FFFFFF" fill-rule="nonzero" points="202.126769 118.636132 207.892396 53.994725 127.889582 53.994725 127.889582 85.932132 172.892132 85.932132 169.98611 118.636132 127.889582 118.636132 127.889582 150.572835 167.216527 150.572835 163.509451 191.992791 127.889582 201.606857 127.889582 234.833407 193.362286 216.687648 193.842637 211.291956 201.347516 127.212132"></polygon>
    </g>
</svg>