<?xml version="1.0" encoding="UTF-8"?>
<svg width="104px" height="123px" viewBox="0 0 104 123" version="1.1" xmlns="http://www.w3.org/2000/svg" xmlns:xlink="http://www.w3.org/1999/xlink">
    <!-- Generator: Sketch 58 (84663) - https://sketch.com -->
    <title>Artboard</title>
    <desc>Created with Sketch.</desc>
    <g id="Artboard" stroke="none" stroke-width="1" fill="none" fill-rule="evenodd">
        <g id="Group-16" transform="translate(-0.000000, 0.142857)" fill-rule="nonzero">
            <polygon id="Path-8" fill="#F25F3F" points="60.6941803 5.17788725 60.6941803 15.7686508 17.8191123 41.1838481 17.8191123 81.6124033 8.96368792 86.7538301 8.96368792 35.9344617"></polygon>
            <polygon id="Path-9" fill="#FFAA5B" points="60.5625858 5.2447832 51.6627093 0 0.0914662032 30.4948109 8.99207671 36.0348394"></polygon>
            <polygon id="Path-9" fill="#FFAA5B" points="102.934075 81.5210285 94.1317724 76.350301 51.4611398 101.190835 17.8610762 81.5210285 8.93126689 86.7760326 42.5605293 106.845112 51.4611398 112.38514"></polygon>
            <polygon id="Path-9" fill="#FFAA5B" points="103.417212 30.697684 94.28596 25.607006 42.7147169 56.1018169 51.6153274 61.6418454"></polygon>
            <polygon id="Path-10" fill="#EB1919" points="0 30.5024631 9.01339017 35.856557 9.01339017 86.7353443 51.9729583 112.076378 51.9729583 122.821033 0 91.7571187"></polygon>
            <polyline id="Path-11" fill="#EB1919" points="85.6123662 41.423098 85.6123662 81.4416626 94.6362359 86.5820859 94.6362359 43.3584612 85.6123662 41.423098"></polyline>
            <polygon id="Path-8" fill="#F25F3F" transform="translate(77.543651, 76.750527) rotate(-180.000000) translate(-77.543651, -76.750527) " points="103.408897 30.672487 103.408897 41.2632505 60.5338295 66.9223518 60.5338295 106.954484 103.408897 81.5003995 103.408897 92.0431196 51.678405 122.828567 51.678405 61.4290615"></polygon>
            <polygon id="Path-12" fill="#EB1919" points="42.8976493 56.0153257 42.8976493 66.6513061 51.7248705 71.9437005 51.7248705 61.4145044"></polygon>
        </g>
    </g>
</svg>