<?xml version="1.0" encoding="UTF-8"?>
<svg width="256px" height="233px" viewBox="0 0 256 233" version="1.1" xmlns="http://www.w3.org/2000/svg" xmlns:xlink="http://www.w3.org/1999/xlink">
    <!-- Generator: Sketch 58 (84663) - https://sketch.com -->
    <title>Artboard</title>
    <desc>Created with Sketch.</desc>
    <g id="Artboard" stroke="none" stroke-width="1" fill="none" fill-rule="evenodd">
        <g id="lodash" fill-rule="nonzero">
            <polygon id="Path" fill="#FFFFFF" points="0.387794202 0 24.1799034 0 24.1799034 157.893062 118.266862 157.893062 118.266862 177.359321 0.387795376 177.359321 0.387795376 3.33759524e-14"></polygon>
            <path d="M229.657182,58.3988046 C243.716134,68.1319386 251.286375,85.4352863 252.367833,101.657173 C254.530749,121.123441 252.367833,140.589709 241.553219,156.811603 C231.820098,169.789116 216.679653,178.440797 199.376326,179.522255 C183.154423,181.68517 164.769603,178.440797 150.710651,167.6262 C137.733121,156.811603 131.244374,140.589709 129.081458,124.367823 C126.918542,107.06447 129.081458,87.5982021 139.896037,72.4577738 C148.547735,57.3173419 165.851061,47.5842079 183.154423,46.5027499 C199.376326,44.3398294 216.679652,47.5842079 229.657182,58.3988046 Z M217.76111,74.6206908 C209.109448,67.0504772 197.213375,63.8060988 186.398796,64.8875614 C173.421301,65.9690193 161.525229,74.6206908 156.11794,86.5167454 C150.710651,99.4942579 149.629157,113.553227 151.792073,127.612198 C153.955025,137.345336 159.362313,147.078466 168.013977,153.567231 C175.584217,160.055978 187.480254,163.300352 198.294869,161.137436 C210.190904,158.97452 219.924061,151.404299 225.33135,140.58971 C230.73864,129.775122 231.820098,116.79761 230.73864,104.901556 C229.657182,94.086959 225.33135,83.2723717 217.76111,74.6206908 Z" id="Shape" fill="#FFFFFF"></path>
            <polygon id="Path" fill="#3492FF" points="0.387794202 205.47728 255.612207 205.47728 255.612207 232.513761 0.387794202 232.513761"></polygon>
        </g>
    </g>
</svg>