<?xml version="1.0" encoding="UTF-8"?>
<svg width="106px" height="106px" viewBox="0 0 106 106" version="1.1" xmlns="http://www.w3.org/2000/svg" xmlns:xlink="http://www.w3.org/1999/xlink">
    <!-- Generator: Sketch 59 (86127) - https://sketch.com -->
    <title>Artboard</title>
    <desc>Created with Sketch.</desc>
    <g id="Artboard" stroke="none" stroke-width="1" fill="none" fill-rule="evenodd">
        <path d="M53.05,5.68 C26.99,5.68 5.78,26.9 5.78,52.95 C5.78,79 27,100.22 53.05,100.22 C79.1,100.22 100.32,79 100.32,52.95 C100.32,26.9 79.1,5.68 53.05,5.68 L53.05,5.68 Z M52.98,9.88 C54.6607614,9.92352881 56.0005599,11.3032552 56.0000002,12.99 C56.0000002,14.7076056 54.6076056,16.1 52.89,16.1 C51.1723944,16.1 49.7799997,14.7076056 49.7799997,12.99 C49.7796479,12.1493438 50.1196331,11.344352 50.7224841,10.7584563 C51.325335,10.1725605 52.1396958,9.85567225 52.98,9.88 Z M60.1,15 C71.1502225,17.0697438 80.7314324,23.8936132 86.3,33.66 L82.63,41.94 C82,43.37 82.65,45.05 84.07,45.69 L91.13,48.82 C91.3490041,51.0268347 91.3757715,53.2485294 91.21,55.46 L87.28,55.46 C86.89,55.46 86.73,55.72 86.73,56.1 L86.73,57.9 C86.73,62.14 84.34,63.07 82.24,63.3 C80.24,63.53 78.03,62.46 77.75,61.24 C76.57,54.61 74.61,53.2 71.51,50.75 C75.36,48.31 79.36,44.7 79.36,39.88 C79.36,34.67 75.79,31.39 73.36,29.78 C69.94,27.53 66.16,27.08 65.14,27.08 L24.54,27.08 C30.1540106,20.8084062 37.6790698,16.5625997 45.95,15 L50.74,20.02 C51.82,21.15 53.61,21.2 54.74,20.11 L60.1,15 Z M15.9,38.02 C17.5823588,38.0687059 18.9207049,39.4469365 18.9200003,41.13 C18.9200003,42.8476056 17.5276056,44.24 15.81,44.24 C14.0923944,44.24 12.6999997,42.8476056 12.6999997,41.13 C12.6996479,40.2893438 13.0396331,39.484352 13.6424841,38.8984563 C14.245335,38.3125605 15.0596958,37.9956723 15.9,38.02 L15.9,38.02 Z M90.05,38.16 C91.7323588,38.2087059 93.0707049,39.5869365 93.0700003,41.27 C93.0700003,42.9876056 91.6776056,44.38 89.96,44.38 C88.2423944,44.38 86.8499997,42.9876056 86.8499997,41.27 C86.8496479,40.4293438 87.1896331,39.624352 87.7924841,39.0384563 C88.395335,38.4525605 89.2096958,38.1356723 90.05,38.16 Z M21.76,38.66 L27.18,38.66 L27.18,63.1 L16.24,63.1 C14.8888795,58.3554398 14.4678195,53.3944023 15,48.49 L21.7,45.51 C23.13,44.87 23.78,43.2 23.14,41.77 L21.76,38.66 Z M44.38,38.92 L57.29,38.92 C57.96,38.92 62,39.69 62,42.72 C62,45.23 58.9,46.13 56.35,46.13 L44.37,46.13 L44.38,38.92 Z M44.38,56.48 L54.27,56.48 C55.17,56.48 59.1,56.74 60.35,61.76 C60.74,63.3 61.61,68.32 62.2,69.93 C62.79,71.73 65.18,75.33 67.73,75.33 L83.87,75.33 C82.7883226,76.7785654 81.6053601,78.1486631 80.33,79.43 L73.76,78.02 C72.23,77.69 70.72,78.67 70.39,80.2 L68.83,87.48 C58.6788391,92.078444 47.0274812,92.0236742 36.92,87.33 L35.36,80.05 C35.03,78.52 33.53,77.54 32,77.87 L25.57,79.25 C24.3767861,78.0191662 23.2676213,76.70955 22.25,75.33 L53.52,75.33 C53.87,75.33 54.11,75.27 54.11,74.94 L54.11,63.88 C54.11,63.56 53.87,63.49 53.52,63.49 L44.37,63.49 L44.38,56.48 Z M29.95,81.81 C31.6323588,81.8587059 32.9707049,83.2369365 32.9700003,84.92 C32.9700003,86.6376055 31.5776055,88.0299999 29.86,88.0299999 C28.1423945,88.0299999 26.7499997,86.6376055 26.7499997,84.92 C26.7496479,84.0793438 27.0896331,83.274352 27.6924841,82.6884563 C28.295335,82.1025605 29.1096958,81.7856723 29.95,81.81 Z M76,81.95 C77.6823588,81.9987059 79.0207049,83.3769365 79.0200003,85.06 C79.0200003,86.7776055 77.6276055,88.1699998 75.91,88.1699998 C74.1923945,88.1699998 72.7999997,86.7776055 72.7999997,85.06 C72.7996479,84.2193438 73.1396331,83.414352 73.7424841,82.8284563 C74.345335,82.2425605 75.1596958,81.9256723 76,81.95 L76,81.95 Z" id="Shape" fill="#FD6A00" fill-rule="nonzero"></path>
        <path d="M57.36,96.74 L57.9016005,97.3193435 C57.5835916,97.3537215 57.2645811,97.3847589 56.9446049,97.4124201 L53.05,103.7 L49.1563954,97.4125066 C48.8364191,97.3848526 48.5174084,97.3538223 48.1993993,97.3194515 L48.74,96.74 L49.1563954,97.4125066 C50.4395046,97.5233992 51.7381424,97.58 53.05,97.58 C54.3621985,97.58 55.6611704,97.5233698 56.9446049,97.4124201 L57.36,96.74 Z M65.82,95.06 L66.4702191,95.5270104 C66.1619166,95.624093 65.8521701,95.7179195 65.54102,95.8084496 L62.95,102.72 L57.9016005,97.3193435 C60.5228028,97.0359814 63.0759599,96.5256662 65.54102,95.8084496 L65.82,95.06 Z M40.28,95.06 L40.55898,95.8084496 C43.0243535,96.5257574 45.5778464,97.0361112 48.1993993,97.3194515 L43.15,102.72 L40.55898,95.8084496 C40.2478299,95.7179195 39.9380834,95.624093 39.6297809,95.5270104 L40.28,95.06 Z M73.79,91.75 L74.5218577,92.0848872 C74.2366196,92.24172 73.9494817,92.395525 73.6604874,92.546259 L72.47,99.84 L66.4702191,95.5270104 C68.968983,94.7401644 71.3728956,93.7394241 73.6604874,92.546259 L73.79,91.75 Z M32.31,91.75 L32.4395126,92.546259 C34.7271044,93.7394241 37.131017,94.7401644 39.6297809,95.5270104 L33.63,99.84 L32.4395126,92.546259 C32.1505183,92.395525 31.8633804,92.24172 31.5781423,92.0848872 L32.31,91.75 Z M80.96,86.96 L81.7335556,87.1433186 C81.4874538,87.3499815 81.2390887,87.5540365 80.9885026,87.7554411 L81.25,95.15 L74.5218577,92.0848872 C76.8067195,90.8285995 78.9696842,89.3780345 80.9885026,87.7554411 L80.96,86.96 Z M25.14,86.96 L25.1114974,87.7554411 C27.1303158,89.3780345 29.2932805,90.8285995 31.5781423,92.0848872 L24.85,95.15 L25.1114974,87.7554411 C24.8609113,87.5540365 24.6125462,87.3499815 24.3664444,87.1433186 L25.14,86.96 Z M87.06,80.86 L87.8554411,80.8885026 C87.6540365,81.1390887 87.4499815,81.3874538 87.2433186,81.6335556 L88.94,88.84 L81.7335556,87.1433186 C83.7260313,85.4701457 85.5701457,83.6260313 87.2433186,81.6335556 L87.06,80.86 Z M19.04,80.86 L18.857523,81.6345578 C20.5304728,83.6266497 22.3743028,85.4704262 24.3664444,87.1433186 L17.16,88.84 L18.857523,81.6345578 C18.6505725,81.3881282 18.4462369,81.1394288 18.2445589,80.8885026 L19.04,80.86 Z M95.25,24.75 L92.1848872,31.4781423 C92.3419015,31.7637106 92.4958811,32.0511831 92.6467825,32.3405162 L99.94,33.53 L95.6273242,39.5307776 C95.7243991,39.8390808 95.8182178,40.1488279 95.9087401,40.4599785 L102.82,43.05 L97.4194515,48.0993993 C97.4538223,48.4174084 97.4848526,48.7364191 97.5125066,49.0563954 L103.8,52.95 L97.5124201,56.8446049 C97.4847589,57.1645811 97.4537215,57.4835916 97.4193435,57.8016005 L102.82,62.85 L95.9084496,65.44102 C95.8179195,65.7521701 95.724093,66.0619166 95.6270104,66.3702191 L99.94,72.37 L92.646259,73.5604874 C92.495525,73.8494817 92.34172,74.1366196 92.1848872,74.4218577 L95.25,81.15 L87.8554411,80.8885026 C89.4780345,78.8696842 90.9285995,76.7067195 92.1848872,74.4218577 L91.85,73.69 L92.646259,73.5604874 C93.8394241,71.2728956 94.8401644,68.868983 95.6270104,66.3702191 L95.16,65.72 L95.9084496,65.44102 C96.6256662,62.9759599 97.1359814,60.4228028 97.4193435,57.8016005 L96.84,57.26 L97.5124201,56.8446049 C97.6233698,55.5611704 97.68,54.2621985 97.68,52.95 C97.68,51.6381424 97.6233992,50.3395046 97.5125066,49.0563954 L96.84,48.64 L97.4194515,48.0993993 C97.1361494,45.4782003 96.6258952,42.925043 95.9087401,40.4599785 L95.16,40.18 L95.6273242,39.5307776 C94.8405455,37.0320217 93.8398754,34.6281117 92.6467825,32.3405162 L91.85,32.21 L92.1848872,31.4781423 C90.9288057,29.1936555 89.4785106,27.0310258 87.85624,25.0124914 L95.25,24.75 Z M10.85,24.75 L18.2445589,25.0114974 C16.622202,27.0300217 15.1718232,29.1926502 13.9156619,31.4771435 L14.25,32.21 L13.453741,32.3395126 C12.2605759,34.6271044 11.2598356,37.031017 10.4729896,39.5297809 L10.94,40.18 L10.1915504,40.45898 C9.47424259,42.9243535 8.96388884,45.4778464 8.68054845,48.0993993 L9.26,48.64 L8.58749345,49.0563954 C8.47660077,50.3395046 8.42,51.6381424 8.42,52.95 C8.42,54.2621985 8.47663019,55.5611704 8.58757991,56.8446049 L9.26,57.26 L8.68065652,57.8016005 C8.96401859,60.4228028 9.47433377,62.9759599 10.1915504,65.44102 L10.94,65.72 L10.4729896,66.3702191 C11.2598356,68.868983 12.2605759,71.2728956 13.453741,73.5604874 L14.25,73.69 L13.9156619,74.4228565 C15.1718232,76.7073498 16.622202,78.8699783 18.2445589,80.8885026 L10.85,81.15 L13.9156619,74.4228565 C13.758639,74.1372898 13.6046509,73.849819 13.453741,73.5604874 L6.16,72.37 L10.4729896,66.3702191 C10.375907,66.0619166 10.2820805,65.7521701 10.1915504,65.44102 L3.28,62.85 L8.68065652,57.8016005 C8.64627853,57.4835916 8.61524106,57.1645811 8.58757991,56.8446049 L2.3,52.95 L8.58749345,49.0563954 C8.6151474,48.7364191 8.64617767,48.4174084 8.68054845,48.0993993 L3.28,43.05 L10.1915504,40.45898 C10.2820805,40.1478299 10.375907,39.8380834 10.4729896,39.5297809 L6.16,33.53 L13.453741,32.3395126 C13.6046509,32.050181 13.758639,31.7627102 13.9156619,31.4771435 L10.85,24.75 Z M88.94,17.06 L87.2433186,24.2664444 C87.4502548,24.5128715 87.6545761,24.7615681 87.85624,25.0124914 L87.06,25.04 L87.2433186,24.2664444 C85.5704262,22.2743028 83.7266497,20.4304728 81.7345578,18.757523 L88.94,17.06 Z M17.16,17.06 L24.3654422,18.757523 C22.3736844,20.4301922 20.5301922,22.2736844 18.857523,24.2654422 L19.04,25.04 L18.2445589,25.0114974 C18.4462369,24.7605712 18.6505725,24.5118718 18.857523,24.2654422 L17.16,17.06 Z M81.25,10.75 L80.9885026,18.1445589 C81.2394288,18.3462369 81.4881282,18.5505725 81.7345578,18.757523 L80.96,18.94 L80.9885026,18.1445589 C78.9699783,16.522202 76.8073498,15.0718232 74.5228565,13.8156619 L81.25,10.75 Z M24.85,10.75 L31.5771435,13.8156619 C29.2930252,15.071617 27.1307317,16.5217258 25.1124914,18.14376 L25.14,18.94 L24.3654422,18.757523 C24.6121972,18.5502992 24.8612279,18.3456973 25.1124914,18.14376 L24.85,10.75 Z M72.47,6.06 L73.6604874,13.353741 C73.949819,13.5046509 74.2372898,13.658639 74.5228565,13.8156619 L73.79,14.15 L73.6604874,13.353741 C71.3728956,12.1605759 68.968983,11.1598356 66.4702191,10.3729896 L72.47,6.06 Z M33.63,6.06 L39.6297809,10.3729896 C37.1313824,11.1597206 34.7278075,12.1602832 32.4405162,13.3532175 L32.31,14.15 L31.5771435,13.8156619 C31.8630403,13.6584575 32.1508458,13.5042948 32.4405162,13.3532175 L33.63,6.06 Z M62.95,3.18 L65.54102,10.0915504 C65.8521701,10.1820805 66.1619166,10.275907 66.4702191,10.3729896 L65.82,10.84 L65.54102,10.0915504 C63.0759599,9.37433377 60.5228028,8.86401859 57.9016005,8.58065652 L62.95,3.18 Z M43.15,3.18 L48.1993993,8.58054845 C45.5782003,8.86385059 43.025043,9.37410479 40.5599785,10.0912599 L40.28,10.84 L39.6297809,10.3729896 C39.9384132,10.2758031 40.2484926,10.1818797 40.5599785,10.0912599 L43.15,3.18 Z M53.05,2.2 L56.9446049,8.48757991 C57.2645811,8.51524106 57.5835916,8.54627853 57.9016005,8.58065652 L57.36,9.16 L56.9446049,8.48757991 C55.6611704,8.37663019 54.3621985,8.32 53.05,8.32 C51.7381424,8.32 50.4395046,8.37660077 49.1563954,8.48749345 L48.74,9.16 L48.1993993,8.58054845 C48.5174084,8.54617767 48.8364191,8.5151474 49.1563954,8.48749345 L53.05,2.2 Z" id="Shape" stroke="#FD6A00" stroke-width="3" fill="#FD6A00" fill-rule="nonzero" stroke-linecap="round" stroke-linejoin="round"></path>
    </g>
</svg>