<?xml version="1.0" encoding="UTF-8"?>
<svg width="59px" height="67px" viewBox="0 0 59 67" version="1.1" xmlns="http://www.w3.org/2000/svg" xmlns:xlink="http://www.w3.org/1999/xlink">
    <!-- Generator: Sketch 58 (84663) - https://sketch.com -->
    <title>Artboard</title>
    <desc>Created with Sketch.</desc>
    <defs>
        <polygon id="path-1" points="0.669 66.302 11.896 59.782 11.896 41.266 20.375 46.173 20.328 33.508 11.896 28.689 11.896 21.334 28.811 31.108 28.772 16.543 0.669 0.487"></polygon>
        <linearGradient x1="-118.066037%" y1="49.8808799%" x2="127.172069%" y2="49.8808799%" id="linearGradient-3">
            <stop stop-color="#FF6E00" offset="0%"></stop>
            <stop stop-color="#FFA800" offset="100%"></stop>
        </linearGradient>
        <polygon id="path-4" points="0.038 16.543 0 31.108 16.915 21.334 16.915 59.782 28.142 66.302 28.142 0.487"></polygon>
        <linearGradient x1="-10.7447534%" y1="49.8808799%" x2="234.493353%" y2="49.8808799%" id="linearGradient-6">
            <stop stop-color="#FF6E00" offset="0%"></stop>
            <stop stop-color="#FFA800" offset="100%"></stop>
        </linearGradient>
    </defs>
    <g id="Artboard" stroke="none" stroke-width="1" fill="none" fill-rule="evenodd">
        <g id="Group-6" transform="translate(30.000000, 0.000000)">
            <mask id="mask-2" fill="white">
                <use xlink:href="#path-1"></use>
            </mask>
            <g id="Clip-5"></g>
            <polygon id="Fill-4" fill="url(#linearGradient-3)" mask="url(#mask-2)" points="0.669 66.302 11.896 59.782 11.896 41.266 20.375 46.173 20.328 33.508 11.896 28.689 11.896 21.334 28.811 31.108 28.772 16.543 0.669 0.487"></polygon>
        </g>
        <g id="Group-9">
            <mask id="mask-5" fill="white">
                <use xlink:href="#path-4"></use>
            </mask>
            <g id="Clip-8"></g>
            <polygon id="Fill-7" fill="url(#linearGradient-6)" mask="url(#mask-5)" points="0.038 16.543 0 31.108 16.915 21.334 16.915 59.782 28.142 66.302 28.142 0.487"></polygon>
        </g>
    </g>
</svg>