<?xml version="1.0" encoding="UTF-8"?>
<svg width="411px" height="91px" viewBox="0 0 411 91" version="1.1" xmlns="http://www.w3.org/2000/svg" xmlns:xlink="http://www.w3.org/1999/xlink">
    <!-- Generator: Sketch 57.1 (83088) - https://sketch.com -->
    <title>HERO35-logo</title>
    <desc>Created with Sketch.</desc>
    <g id="HERO35-logo" stroke="none" stroke-width="1" fill="none" fill-rule="evenodd">
        <path d="M60.416,88.576 L44.288,88.576 L44.288,52.224 L16.256,52.224 L16.256,88.576 L0,88.576 L0,1.408 L16.256,1.408 L16.256,37.632 L44.288,37.632 L44.288,1.408 L60.416,1.408 L60.416,88.576 Z M89.6,73.856 L132.992,73.856 L132.992,88.576 L73.088,88.576 L73.088,1.408 L132.992,1.408 L132.992,16.128 L89.6,16.128 L89.6,37.632 L132.992,37.632 L132.992,52.224 L89.6,52.224 L89.6,73.856 Z M162.304,53.376 L162.304,88.576 L146.048,88.576 L146.048,1.408 L183.424,1.408 C186.752017,1.408 189.866652,2.02666048 192.768,3.264 C195.669348,4.50133952 198.165323,6.186656 200.256,8.32 C202.346677,10.453344 204.01066,12.9706522 205.248,15.872 C206.48534,18.7733478 207.104,21.8453171 207.104,25.088 L207.104,28.928 C207.104,32.1706829 206.48534,35.221319 205.248,38.08 C204.01066,40.938681 202.346677,43.4559891 200.256,45.632 C198.165323,47.8080109 195.669348,49.4933274 192.768,50.688 C189.866652,51.8826726 186.752017,52.48 183.424,52.48 L179.072,52.48 L208.64,88.576 L190.08,88.576 L162.304,53.376 Z M162.304,16.64 L162.304,37.248 L180.864,37.248 C184.533352,37.248 187.221325,36.352009 188.928,34.56 C190.634675,32.767991 191.488,30.2506829 191.488,27.008 C191.488,23.9359846 190.634675,21.4400096 188.928,19.52 C187.221325,17.5999904 184.533352,16.64 180.864,16.64 L162.304,16.64 Z M253.44,0.896 C256.682683,0.896 259.754652,1.5359936 262.656,2.816 C265.557348,4.0960064 268.095989,5.802656 270.272,7.936 C272.448011,10.069344 274.15466,12.5866522 275.392,15.488 C276.62934,18.3893478 277.248,21.5039834 277.248,24.832 L277.248,64.768 C277.248,68.0106829 276.62934,71.0826522 275.392,73.984 C274.15466,76.8853478 272.448011,79.402656 270.272,81.536 C268.095989,83.669344 265.557348,85.3759936 262.656,86.656 C259.754652,87.9360064 256.682683,88.576 253.44,88.576 L240.384,88.576 C237.141317,88.576 234.069348,87.9360064 231.168,86.656 C228.266652,85.3759936 225.749344,83.669344 223.616,81.536 C221.482656,79.402656 219.79734,76.8853478 218.56,73.984 C217.32266,71.0826522 216.704,68.0106829 216.704,64.768 L216.704,24.832 C216.704,21.5039834 217.32266,18.3893478 218.56,15.488 C219.79734,12.5866522 221.482656,10.069344 223.616,7.936 C225.749344,5.802656 228.266652,4.0960064 231.168,2.816 C234.069348,1.5359936 237.141317,0.896 240.384,0.896 L253.44,0.896 Z M262.4,27.392 C262.4,25.9413261 262.122669,24.5546733 261.568,23.232 C261.013331,21.9093267 260.245338,20.7360051 259.264,19.712 C258.282662,18.6879949 257.152006,17.8986694 255.872,17.344 C254.591994,16.7893306 253.184008,16.512 251.648,16.512 L242.176,16.512 C240.639992,16.512 239.232006,16.7893306 237.952,17.344 C236.671994,17.8986694 235.541338,18.6879949 234.56,19.712 C233.578662,20.7360051 232.810669,21.9093267 232.256,23.232 C231.701331,24.5546733 231.424,25.9413261 231.424,27.392 L231.424,62.08 C231.424,63.5306739 231.701331,64.9386598 232.256,66.304 C232.810669,67.6693402 233.578662,68.8426618 234.56,69.824 C235.541338,70.8053382 236.671994,71.5733306 237.952,72.128 C239.232006,72.6826694 240.639992,72.96 242.176,72.96 L251.648,72.96 C253.184008,72.96 254.591994,72.6826694 255.872,72.128 C257.152006,71.5733306 258.282662,70.8053382 259.264,69.824 C260.245338,68.8426618 261.013331,67.6693402 261.568,66.304 C262.122669,64.9386598 262.4,63.5306739 262.4,62.08 L262.4,27.392 Z M342.784,16.384 C344.320008,20.9066893 344.682671,25.3226451 343.872,29.632 C343.061329,33.9413549 340.821352,37.7599834 337.152,41.088 L336.384,41.984 L337.152,42.752 C339.456012,45.1413453 341.162661,47.7439859 342.272,50.56 C345.514683,58.3253722 345.514683,66.0906278 342.272,73.856 C341.162661,76.5866803 339.605343,79.0399891 337.6,81.216 C335.594657,83.3920109 333.269347,85.0773274 330.624,86.272 C328.661324,87.2106714 326.698676,87.8719981 324.736,88.256 C322.773324,88.6400019 320.810676,88.8959994 318.848,89.024 C316.885324,89.1520006 314.922676,89.1946669 312.96,89.152 C310.997324,89.1093331 308.949344,89.088 306.816,89.088 C303.743985,89.088 300.84268,88.4906726 298.112,87.296 C295.38132,86.1013274 292.99201,84.4586771 290.944,82.368 C288.89599,80.2773229 287.296006,77.8453472 286.144,75.072 C284.991994,72.2986528 284.416,69.3760154 284.416,66.304 L284.416,63.744 L298.24,63.744 C298.24,65.1946739 298.495997,66.5173274 299.008,67.712 C299.520003,69.1626739 300.330661,70.3146624 301.44,71.168 C302.549339,72.0213376 303.829326,72.7039974 305.28,73.216 C306.730674,73.7280026 308.223992,74.0479994 309.76,74.176 C311.296008,74.3040006 312.703994,74.3253338 313.984,74.24 C315.776009,74.0693325 317.589324,73.813335 319.424,73.472 C321.258676,73.130665 322.943992,72.4053389 324.48,71.296 C326.357343,69.8453261 327.573331,67.7973466 328.128,65.152 C328.682669,62.5066534 328.61867,59.9040128 327.936,57.344 C326.741327,52.9066445 323.584026,50.2186714 318.464,49.28 C316.41599,48.7679974 313.68535,48.512 310.272,48.512 L305.792,48.512 L305.792,35.328 L310.272,35.328 C313.68535,35.328 316.41599,35.0720026 318.464,34.56 C321.024013,34.218665 323.029326,33.4506726 324.48,32.256 C325.504005,31.4026624 326.314664,30.3573395 326.912,29.12 C327.509336,27.8826605 327.829333,26.5813402 327.872,25.216 C327.914667,23.8506598 327.658669,22.5066733 327.104,21.184 C326.549331,19.8613267 325.674673,18.6453389 324.48,17.536 C323.541329,16.6826624 322.240008,16 320.576,15.488 C318.911992,14.9759974 317.12001,14.6773338 315.2,14.592 C313.27999,14.5066662 311.29601,14.6133318 309.248,14.912 C307.19999,15.2106682 305.365341,15.7866624 303.744,16.64 C302.122659,17.4933376 300.800005,18.6453261 299.776,20.096 C298.751995,21.5466739 298.24,23.2959898 298.24,25.344 L284.416,25.344 L284.416,22.656 C284.416,18.9866483 285.183992,15.722681 286.72,12.864 C288.256008,10.005319 290.261321,7.63734272 292.736,5.76 C295.210679,3.88265728 298.047984,2.45333824 301.248,1.472 C304.448016,0.49066176 307.669317,0 310.912,0 L314.816,0 C315.797338,0 316.543997,0.02133312 317.056,0.064 C317.568003,0.10666688 317.930666,0.128 318.144,0.128 L318.464,0.128 C319.488005,0.21333376 320.533328,0.29866624 321.6,0.384 C322.666672,0.46933376 323.711995,0.59733248 324.736,0.768 C326.613343,1.1946688 328.51199,1.85599552 330.432,2.752 C332.35201,3.64800448 334.037326,4.7359936 335.488,6.016 C337.109341,7.38134016 338.559994,8.95999104 339.84,10.752 C341.120006,12.544009 342.10133,14.4213235 342.784,16.384 Z M380.544,30.72 C385.152023,30.72 389.290648,31.3813267 392.96,32.704 C396.629352,34.0266733 399.743987,35.9466541 402.304,38.464 C404.864013,40.9813459 406.82666,44.1173146 408.192,47.872 C409.55734,51.6266854 410.24,55.8506432 410.24,60.544 C410.24,69.8453798 407.722692,77.1413069 402.688,82.432 C397.653308,87.7226931 390.016051,90.368 379.776,90.368 C375.338644,90.368 371.264019,89.7920058 367.552,88.64 C363.839981,87.4879942 360.68268,85.7600115 358.08,83.456 C355.47732,81.1519885 353.472007,78.229351 352.064,74.688 C350.655993,71.146649 349.952,66.9866906 349.952,62.208 L364.544,62.208 C364.544,66.3040205 365.695988,69.6106541 368,72.128 C370.304012,74.6453459 374.058641,75.904 379.264,75.904 C384.042691,75.904 387.861319,74.5813466 390.72,71.936 C393.578681,69.2906534 395.008,65.5360243 395.008,60.672 C395.008,57.8559859 394.602671,55.4880096 393.792,53.568 C392.981329,51.6479904 391.829341,50.1120058 390.336,48.96 C388.842659,47.8079942 387.114676,46.9760026 385.152,46.464 C383.189324,45.9519974 381.056012,45.696 378.752,45.696 C373.290639,45.696 369.365345,47.0186534 366.976,49.664 L352,49.664 L352,1.92 L406.016,1.92 L406.016,17.152 L368.128,17.152 L368.128,33.152 C369.408006,32.2986624 371.221322,31.6800019 373.568,31.296 C375.914678,30.9119981 378.239988,30.72 380.544,30.72 Z" id="HER035" fill="#FFFFFF" fill-rule="nonzero"></path>
    </g>
</svg>