<?xml version="1.0" encoding="UTF-8"?>
<svg width="414px" height="125px" viewBox="0 0 414 125" version="1.1" xmlns="http://www.w3.org/2000/svg" xmlns:xlink="http://www.w3.org/1999/xlink">
    <!-- Generator: Sketch 58 (84663) - https://sketch.com -->
    <title>HERO35-logo-tagline</title>
    <desc>Created with Sketch.</desc>
    <g id="HERO35-logo-tagline" stroke="none" stroke-width="1" fill="none" fill-rule="evenodd">
        <path d="M60.884,88.576 L44.756,88.576 L44.756,52.224 L16.724,52.224 L16.724,88.576 L0.468,88.576 L0.468,1.408 L16.724,1.408 L16.724,37.632 L44.756,37.632 L44.756,1.408 L60.884,1.408 L60.884,88.576 Z M90.068,73.856 L133.46,73.856 L133.46,88.576 L73.556,88.576 L73.556,1.408 L133.46,1.408 L133.46,16.128 L90.068,16.128 L90.068,37.632 L133.46,37.632 L133.46,52.224 L90.068,52.224 L90.068,73.856 Z M162.772,53.376 L162.772,88.576 L146.516,88.576 L146.516,1.408 L183.892,1.408 C187.220017,1.408 190.334652,2.02666048 193.236,3.264 C196.137348,4.50133952 198.633323,6.186656 200.724,8.32 C202.814677,10.453344 204.47866,12.9706522 205.716,15.872 C206.95334,18.7733478 207.572,21.8453171 207.572,25.088 L207.572,28.928 C207.572,32.1706829 206.95334,35.221319 205.716,38.08 C204.47866,40.938681 202.814677,43.4559891 200.724,45.632 C198.633323,47.8080109 196.137348,49.4933274 193.236,50.688 C190.334652,51.8826726 187.220017,52.48 183.892,52.48 L179.54,52.48 L209.108,88.576 L190.548,88.576 L162.772,53.376 Z M162.772,16.64 L162.772,37.248 L181.332,37.248 C185.001352,37.248 187.689325,36.352009 189.396,34.56 C191.102675,32.767991 191.956,30.2506829 191.956,27.008 C191.956,23.9359846 191.102675,21.4400096 189.396,19.52 C187.689325,17.5999904 185.001352,16.64 181.332,16.64 L162.772,16.64 Z M253.908,0.896 C257.150683,0.896 260.222652,1.5359936 263.124,2.816 C266.025348,4.0960064 268.563989,5.802656 270.74,7.936 C272.916011,10.069344 274.62266,12.5866522 275.86,15.488 C277.09734,18.3893478 277.716,21.5039834 277.716,24.832 L277.716,64.768 C277.716,68.0106829 277.09734,71.0826522 275.86,73.984 C274.62266,76.8853478 272.916011,79.402656 270.74,81.536 C268.563989,83.669344 266.025348,85.3759936 263.124,86.656 C260.222652,87.9360064 257.150683,88.576 253.908,88.576 L240.852,88.576 C237.609317,88.576 234.537348,87.9360064 231.636,86.656 C228.734652,85.3759936 226.217344,83.669344 224.084,81.536 C221.950656,79.402656 220.26534,76.8853478 219.028,73.984 C217.79066,71.0826522 217.172,68.0106829 217.172,64.768 L217.172,24.832 C217.172,21.5039834 217.79066,18.3893478 219.028,15.488 C220.26534,12.5866522 221.950656,10.069344 224.084,7.936 C226.217344,5.802656 228.734652,4.0960064 231.636,2.816 C234.537348,1.5359936 237.609317,0.896 240.852,0.896 L253.908,0.896 Z M262.868,27.392 C262.868,25.9413261 262.590669,24.5546733 262.036,23.232 C261.481331,21.9093267 260.713338,20.7360051 259.732,19.712 C258.750662,18.6879949 257.620006,17.8986694 256.34,17.344 C255.059994,16.7893306 253.652008,16.512 252.116,16.512 L242.644,16.512 C241.107992,16.512 239.700006,16.7893306 238.42,17.344 C237.139994,17.8986694 236.009338,18.6879949 235.028,19.712 C234.046662,20.7360051 233.278669,21.9093267 232.724,23.232 C232.169331,24.5546733 231.892,25.9413261 231.892,27.392 L231.892,62.08 C231.892,63.5306739 232.169331,64.9386598 232.724,66.304 C233.278669,67.6693402 234.046662,68.8426618 235.028,69.824 C236.009338,70.8053382 237.139994,71.5733306 238.42,72.128 C239.700006,72.6826694 241.107992,72.96 242.644,72.96 L252.116,72.96 C253.652008,72.96 255.059994,72.6826694 256.34,72.128 C257.620006,71.5733306 258.750662,70.8053382 259.732,69.824 C260.713338,68.8426618 261.481331,67.6693402 262.036,66.304 C262.590669,64.9386598 262.868,63.5306739 262.868,62.08 L262.868,27.392 Z M343.252,16.384 C344.788008,20.9066893 345.150671,25.3226451 344.34,29.632 C343.529329,33.9413549 341.289352,37.7599834 337.62,41.088 L336.852,41.984 L337.62,42.752 C339.924012,45.1413453 341.630661,47.7439859 342.74,50.56 C345.982683,58.3253722 345.982683,66.0906278 342.74,73.856 C341.630661,76.5866803 340.073343,79.0399891 338.068,81.216 C336.062657,83.3920109 333.737347,85.0773274 331.092,86.272 C329.129324,87.2106714 327.166676,87.8719981 325.204,88.256 C323.241324,88.6400019 321.278676,88.8959994 319.316,89.024 C317.353324,89.1520006 315.390676,89.1946669 313.428,89.152 C311.465324,89.1093331 309.417344,89.088 307.284,89.088 C304.211985,89.088 301.31068,88.4906726 298.58,87.296 C295.84932,86.1013274 293.46001,84.4586771 291.412,82.368 C289.36399,80.2773229 287.764006,77.8453472 286.612,75.072 C285.459994,72.2986528 284.884,69.3760154 284.884,66.304 L284.884,63.744 L298.708,63.744 C298.708,65.1946739 298.963997,66.5173274 299.476,67.712 C299.988003,69.1626739 300.798661,70.3146624 301.908,71.168 C303.017339,72.0213376 304.297326,72.7039974 305.748,73.216 C307.198674,73.7280026 308.691992,74.0479994 310.228,74.176 C311.764008,74.3040006 313.171994,74.3253338 314.452,74.24 C316.244009,74.0693325 318.057324,73.813335 319.892,73.472 C321.726676,73.130665 323.411992,72.4053389 324.948,71.296 C326.825343,69.8453261 328.041331,67.7973466 328.596,65.152 C329.150669,62.5066534 329.08667,59.9040128 328.404,57.344 C327.209327,52.9066445 324.052026,50.2186714 318.932,49.28 C316.88399,48.7679974 314.15335,48.512 310.74,48.512 L306.26,48.512 L306.26,35.328 L310.74,35.328 C314.15335,35.328 316.88399,35.0720026 318.932,34.56 C321.492013,34.218665 323.497326,33.4506726 324.948,32.256 C325.972005,31.4026624 326.782664,30.3573395 327.38,29.12 C327.977336,27.8826605 328.297333,26.5813402 328.34,25.216 C328.382667,23.8506598 328.126669,22.5066733 327.572,21.184 C327.017331,19.8613267 326.142673,18.6453389 324.948,17.536 C324.009329,16.6826624 322.708008,16 321.044,15.488 C319.379992,14.9759974 317.58801,14.6773338 315.668,14.592 C313.74799,14.5066662 311.76401,14.6133318 309.716,14.912 C307.66799,15.2106682 305.833341,15.7866624 304.212,16.64 C302.590659,17.4933376 301.268005,18.6453261 300.244,20.096 C299.219995,21.5466739 298.708,23.2959898 298.708,25.344 L284.884,25.344 L284.884,22.656 C284.884,18.9866483 285.651992,15.722681 287.188,12.864 C288.724008,10.005319 290.729321,7.63734272 293.204,5.76 C295.678679,3.88265728 298.515984,2.45333824 301.716,1.472 C304.916016,0.49066176 308.137317,0 311.38,0 L315.284,0 C316.265338,0 317.011997,0.02133312 317.524,0.064 C318.036003,0.10666688 318.398666,0.128 318.612,0.128 L318.932,0.128 C319.956005,0.21333376 321.001328,0.29866624 322.068,0.384 C323.134672,0.46933376 324.179995,0.59733248 325.204,0.768 C327.081343,1.1946688 328.97999,1.85599552 330.9,2.752 C332.82001,3.64800448 334.505326,4.7359936 335.956,6.016 C337.577341,7.38134016 339.027994,8.95999104 340.308,10.752 C341.588006,12.544009 342.56933,14.4213235 343.252,16.384 Z M381.012,30.72 C385.620023,30.72 389.758648,31.3813267 393.428,32.704 C397.097352,34.0266733 400.211987,35.9466541 402.772,38.464 C405.332013,40.9813459 407.29466,44.1173146 408.66,47.872 C410.02534,51.6266854 410.708,55.8506432 410.708,60.544 C410.708,69.8453798 408.190692,77.1413069 403.156,82.432 C398.121308,87.7226931 390.484051,90.368 380.244,90.368 C375.806644,90.368 371.732019,89.7920058 368.02,88.64 C364.307981,87.4879942 361.15068,85.7600115 358.548,83.456 C355.94532,81.1519885 353.940007,78.229351 352.532,74.688 C351.123993,71.146649 350.42,66.9866906 350.42,62.208 L365.012,62.208 C365.012,66.3040205 366.163988,69.6106541 368.468,72.128 C370.772012,74.6453459 374.526641,75.904 379.732,75.904 C384.510691,75.904 388.329319,74.5813466 391.188,71.936 C394.046681,69.2906534 395.476,65.5360243 395.476,60.672 C395.476,57.8559859 395.070671,55.4880096 394.26,53.568 C393.449329,51.6479904 392.297341,50.1120058 390.804,48.96 C389.310659,47.8079942 387.582676,46.9760026 385.62,46.464 C383.657324,45.9519974 381.524012,45.696 379.22,45.696 C373.758639,45.696 369.833345,47.0186534 367.444,49.664 L352.468,49.664 L352.468,1.92 L406.484,1.92 L406.484,17.152 L368.596,17.152 L368.596,33.152 C369.876006,32.2986624 371.689322,31.6800019 374.036,31.296 C376.382678,30.9119981 378.707988,30.72 381.012,30.72 Z" id="HER035" fill="#FFFFFF" fill-rule="nonzero"></path>
        <path d="M218.979492,99.9153555 L228.225098,99.9153555 C235.556641,99.9153555 239.829102,104.392895 239.829102,112.134594 C239.829102,120.047191 235.60791,124.576 228.225098,124.576 L218.979492,124.576 L218.979492,99.9153555 Z M223.388672,103.726391 L223.388672,120.764965 L227.644043,120.764965 C232.548828,120.764965 235.334473,117.705883 235.334473,112.202953 C235.334473,106.819652 232.480469,103.726391 227.644043,103.726391 L223.388672,103.726391 Z M252.270508,108.870434 C249.741211,108.870434 247.963867,110.681957 247.775879,113.416332 L256.577148,113.416332 C256.491699,110.647777 254.816895,108.870434 252.270508,108.870434 Z M256.611328,119.431957 L260.627441,119.431957 C259.858398,122.832836 256.730957,124.951977 252.321777,124.951977 C246.818848,124.951977 243.503418,121.31184 243.503418,115.296215 C243.503418,109.28059 246.870117,105.503734 252.287598,105.503734 C257.619629,105.503734 260.81543,109.041332 260.81543,114.937328 L260.81543,116.304516 L247.758789,116.304516 L247.758789,116.526684 C247.861328,119.637035 249.655762,121.585277 252.441406,121.585277 C254.543457,121.585277 255.996094,120.816234 256.611328,119.431957 Z M281.374512,105.879711 L274.760742,124.576 L270.095215,124.576 L263.447266,105.879711 L267.993164,105.879711 L272.316895,120.337719 L272.607422,120.337719 L276.896973,105.879711 L281.374512,105.879711 Z M315.52002,124.576 L311.12793,124.576 L311.12793,113.929027 L299.130859,113.929027 L299.130859,124.576 L294.72168,124.576 L294.72168,99.9153555 L299.130859,99.9153555 L299.130859,110.117992 L311.12793,110.117992 L311.12793,99.9153555 L315.52002,99.9153555 L315.52002,124.576 Z M329.003906,108.870434 C326.474609,108.870434 324.697266,110.681957 324.509277,113.416332 L333.310547,113.416332 C333.225098,110.647777 331.550293,108.870434 329.003906,108.870434 Z M333.344727,119.431957 L337.36084,119.431957 C336.591797,122.832836 333.464355,124.951977 329.055176,124.951977 C323.552246,124.951977 320.236816,121.31184 320.236816,115.296215 C320.236816,109.28059 323.603516,105.503734 329.020996,105.503734 C334.353027,105.503734 337.548828,109.041332 337.548828,114.937328 L337.548828,116.304516 L324.492188,116.304516 L324.492188,116.526684 C324.594727,119.637035 326.38916,121.585277 329.174805,121.585277 C331.276855,121.585277 332.729492,120.816234 333.344727,119.431957 Z M341.804199,124.576 L341.804199,105.879711 L345.888672,105.879711 L345.888672,108.784984 L346.179199,108.784984 C346.691895,106.939281 348.708496,105.572094 351.118164,105.572094 C351.733398,105.572094 352.485352,105.640453 352.878418,105.760082 L352.878418,109.690746 C352.553711,109.571117 351.425781,109.451488 350.708008,109.451488 C347.956543,109.451488 346.04248,111.160473 346.04248,113.775219 L346.04248,124.576 L341.804199,124.576 Z M364.414062,124.951977 C358.808594,124.951977 355.424805,121.29475 355.424805,115.227855 C355.424805,109.195141 358.859863,105.503734 364.414062,105.503734 C369.985352,105.503734 373.40332,109.178051 373.40332,115.227855 C373.40332,121.29475 370.002441,124.951977 364.414062,124.951977 Z M364.414062,121.397289 C367.370605,121.397289 369.04541,119.14143 369.04541,115.227855 C369.04541,111.331371 367.353516,109.058422 364.414062,109.058422 C361.45752,109.058422 359.765625,111.331371 359.765625,115.227855 C359.765625,119.14143 361.45752,121.397289 364.414062,121.397289 Z M385.52002,108.870434 C382.990723,108.870434 381.213379,110.681957 381.025391,113.416332 L389.82666,113.416332 C389.741211,110.647777 388.066406,108.870434 385.52002,108.870434 Z M389.86084,119.431957 L393.876953,119.431957 C393.10791,122.832836 389.980469,124.951977 385.571289,124.951977 C380.068359,124.951977 376.75293,121.31184 376.75293,115.296215 C376.75293,109.28059 380.119629,105.503734 385.537109,105.503734 C390.869141,105.503734 394.064941,109.041332 394.064941,114.937328 L394.064941,116.304516 L381.008301,116.304516 L381.008301,116.526684 C381.11084,119.637035 382.905273,121.585277 385.690918,121.585277 C387.792969,121.585277 389.245605,120.816234 389.86084,119.431957 Z M397.893066,111.228832 C397.893066,107.845043 400.969238,105.503734 405.378418,105.503734 C409.821777,105.503734 412.607422,107.469066 412.915039,110.869945 L408.933105,110.869945 C408.625488,109.554027 407.37793,108.716625 405.395508,108.716625 C403.464355,108.716625 402.011719,109.639477 402.011719,110.989574 C402.011719,112.049145 402.900391,112.698559 404.780273,113.125805 L408.078613,113.877758 C411.650391,114.68098 413.308105,116.219066 413.308105,118.970531 C413.308105,122.559398 410.009766,124.951977 405.344238,124.951977 C400.678711,124.951977 397.739258,122.935375 397.414551,119.534496 L401.601562,119.534496 C402.011719,120.918773 403.327637,121.739086 405.446777,121.739086 C407.583008,121.739086 409.069824,120.799145 409.069824,119.414867 C409.069824,118.355297 408.266602,117.688793 406.489258,117.295727 L403.173828,116.526684 C399.584961,115.706371 397.893066,114.048656 397.893066,111.228832 Z" id="DevHeroes" fill="#C7C7CC" fill-rule="nonzero"></path>
        <rect id="Rectangle" fill="#FFFFFF" x="0" y="99.576" width="134" height="25"></rect>
        <rect id="Rectangle-Copy" fill="#FFFFFF" x="146" y="99.576" width="63" height="25"></rect>
    </g>
</svg>