<?xml version="1.0" encoding="UTF-8"?>
<svg width="411px" height="91px" viewBox="0 0 411 91" version="1.1" xmlns="http://www.w3.org/2000/svg" xmlns:xlink="http://www.w3.org/1999/xlink">
    <!-- Generator: Sketch 58 (84663) - https://sketch.com -->
    <title>HERO35-logo</title>
    <desc>Created with Sketch.</desc>
    <g id="HERO35-logo" stroke="none" stroke-width="1" fill="none" fill-rule="evenodd">
        <g id="Group-2" fill="#FFFFFF" fill-rule="nonzero">
            <polygon id="Path" points="60.416 88.576 44.288 88.576 44.288 52.224 16.256 52.224 16.256 88.576 0 88.576 0 1.408 16.256 1.408 16.256 37.632 44.288 37.632 44.288 1.408 60.416 1.408"></polygon>
            <polygon id="Path" points="89.6 73.856 132.992 73.856 132.992 88.576 73.088 88.576 73.088 1.408 132.992 1.408 132.992 16.128 89.6 16.128 89.6 37.632 132.992 37.632 132.992 52.224 89.6 52.224"></polygon>
            <path d="M183.424,1.408 C186.752017,1.408 189.866652,2.02666048 192.768,3.264 C195.669348,4.50133952 198.165323,6.186656 200.256,8.32 C202.346677,10.453344 204.01066,12.9706522 205.248,15.872 C206.48534,18.7733478 207.104,21.8453171 207.104,25.088 L207.104,28.928 C207.104,32.1706829 206.48534,35.221319 205.248,38.08 C204.01066,40.938681 202.346677,43.4559891 200.256,45.632 C198.165323,47.8080109 195.669348,49.4933274 192.768,50.688 C189.866652,51.8826726 186.752017,52.48 183.424,52.48 L179.072,52.48 L208.64,88.576 L190.08,88.576 L162.304,53.376 L162.304,88.576 L146.048,88.576 L146.048,1.408 L183.424,1.408 Z M180.864,16.64 L162.304,16.64 L162.304,37.248 L180.864,37.248 C184.533352,37.248 187.221325,36.352009 188.928,34.56 C190.634675,32.767991 191.488,30.2506829 191.488,27.008 C191.488,23.9359846 190.634675,21.4400096 188.928,19.52 C187.221325,17.5999904 184.533352,16.64 180.864,16.64 Z" id="Combined-Shape"></path>
            <path d="M253.44,0.896 C256.682683,0.896 259.754652,1.5359936 262.656,2.816 C265.557348,4.0960064 268.095989,5.802656 270.272,7.936 C272.448011,10.069344 274.15466,12.5866522 275.392,15.488 C276.62934,18.3893478 277.248,21.5039834 277.248,24.832 L277.248,64.768 C277.248,68.0106829 276.62934,71.0826522 275.392,73.984 C274.15466,76.8853478 272.448011,79.402656 270.272,81.536 C268.095989,83.669344 265.557348,85.3759936 262.656,86.656 C259.754652,87.9360064 256.682683,88.576 253.44,88.576 L240.384,88.576 C237.141317,88.576 234.069348,87.9360064 231.168,86.656 C228.266652,85.3759936 225.749344,83.669344 223.616,81.536 C221.482656,79.402656 219.79734,76.8853478 218.56,73.984 C217.32266,71.0826522 216.704,68.0106829 216.704,64.768 L216.704,24.832 C216.704,21.5039834 217.32266,18.3893478 218.56,15.488 C219.79734,12.5866522 221.482656,10.069344 223.616,7.936 C225.749344,5.802656 228.266652,4.0960064 231.168,2.816 C234.069348,1.5359936 237.141317,0.896 240.384,0.896 L253.44,0.896 Z M251.648,16.512 L242.176,16.512 C240.639992,16.512 239.232006,16.7893306 237.952,17.344 C236.671994,17.8986694 235.541338,18.6879949 234.56,19.712 C233.578662,20.7360051 232.810669,21.9093267 232.256,23.232 C231.701331,24.5546733 231.424,25.9413261 231.424,27.392 L231.424,62.08 C231.424,63.5306739 231.701331,64.9386598 232.256,66.304 C232.810669,67.6693402 233.578662,68.8426618 234.56,69.824 C235.541338,70.8053382 236.671994,71.5733306 237.952,72.128 C239.232006,72.6826694 240.639992,72.96 242.176,72.96 L251.648,72.96 C253.184008,72.96 254.591994,72.6826694 255.872,72.128 C257.152006,71.5733306 258.282662,70.8053382 259.264,69.824 C260.245338,68.8426618 261.013331,67.6693402 261.568,66.304 C262.122669,64.9386598 262.4,63.5306739 262.4,62.08 L262.4,27.392 C262.4,25.9413261 262.122669,24.5546733 261.568,23.232 C261.013331,21.9093267 260.245338,20.7360051 259.264,19.712 C258.282662,18.6879949 257.152006,17.8986694 255.872,17.344 C254.591994,16.7893306 253.184008,16.512 251.648,16.512 Z" id="Combined-Shape"></path>
            <g id="Group" transform="translate(284.416000, 0.000000)">
                <path d="M58.368,16.384 C59.9040077,20.9066893 60.2666707,25.3226451 59.456,29.632 C58.6453293,33.9413549 56.4053517,37.7599834 52.736,41.088 L51.968,41.984 L52.736,42.752 C55.0400115,45.1413453 56.7466611,47.7439859 57.856,50.56 C61.0986829,58.3253722 61.0986829,66.0906278 57.856,73.856 C56.7466611,76.5866803 55.1893434,79.0399891 53.184,81.216 C51.1786566,83.3920109 48.8533466,85.0773274 46.208,86.272 C44.2453235,87.2106714 42.2826765,87.8719981 40.32,88.256 C38.3573235,88.6400019 36.3946765,88.8959994 34.432,89.024 C32.4693235,89.1520006 30.5066765,89.1946669 28.544,89.152 C26.5813235,89.1093331 24.533344,89.088 22.4,89.088 C19.3279846,89.088 16.4266803,88.4906726 13.696,87.296 C10.9653197,86.1013274 8.57601024,84.4586771 6.528,82.368 C4.47998976,80.2773229 2.88000576,77.8453472 1.728,75.072 C0.57599424,72.2986528 2.84217094e-14,69.3760154 2.84217094e-14,66.304 L2.84217094e-14,63.744 L13.824,63.744 C13.824,65.1946739 14.0799974,66.5173274 14.592,67.712 C15.1040026,69.1626739 15.9146611,70.3146624 17.024,71.168 C18.1333389,72.0213376 19.4133261,72.7039974 20.864,73.216 C22.3146739,73.7280026 23.8079923,74.0479994 25.344,74.176 C26.8800077,74.3040006 28.2879936,74.3253338 29.568,74.24 C31.360009,74.0693325 33.1733242,73.813335 35.008,73.472 C36.8426758,73.130665 38.5279923,72.4053389 40.064,71.296 C41.9413427,69.8453261 43.1573306,67.7973466 43.712,65.152 C44.2666694,62.5066534 44.2026701,59.9040128 43.52,57.344 C42.3253274,52.9066445 39.1680256,50.2186714 34.048,49.28 C31.9999898,48.7679974 29.2693504,48.512 25.856,48.512 L21.376,48.512 L21.376,35.328 L25.856,35.328 C29.2693504,35.328 31.9999898,35.0720026 34.048,34.56 C36.6080128,34.218665 38.6133261,33.4506726 40.064,32.256 C41.0880051,31.4026624 41.8986637,30.3573395 42.496,29.12 C43.0933363,27.8826605 43.4133331,26.5813402 43.456,25.216 C43.4986669,23.8506598 43.2426694,22.5066733 42.688,21.184 C42.1333306,19.8613267 41.2586726,18.6453389 40.064,17.536 C39.1253286,16.6826624 37.8240083,16 36.16,15.488 C34.4959917,14.9759974 32.7040096,14.6773338 30.784,14.592 C28.8639904,14.5066662 26.8800102,14.6133318 24.832,14.912 C22.7839898,15.2106682 20.9493414,15.7866624 19.328,16.64 C17.7066586,17.4933376 16.3840051,18.6453261 15.36,20.096 C14.3359949,21.5466739 13.824,23.2959898 13.824,25.344 L2.84217094e-14,25.344 L2.84217094e-14,22.656 C2.84217094e-14,18.9866483 0.76799232,15.722681 2.304,12.864 C3.84000768,10.005319 5.84532096,7.63734272 8.32,5.76 C10.794679,3.88265728 13.631984,2.45333824 16.832,1.472 C20.032016,0.49066176 23.2533171,0 26.496,0 L30.4,0 C31.3813382,0 32.1279974,0.02133312 32.64,0.064 C33.1520026,0.10666688 33.5146656,0.128 33.728,0.128 L34.048,0.128 C35.0720051,0.21333376 36.117328,0.29866624 37.184,0.384 C38.250672,0.46933376 39.2959949,0.59733248 40.32,0.768 C42.1973427,1.1946688 44.0959904,1.85599552 46.016,2.752 C47.9360096,3.64800448 49.6213261,4.7359936 51.072,6.016 C52.6933414,7.38134016 54.1439936,8.95999104 55.424,10.752 C56.7040064,12.544009 57.6853299,14.4213235 58.368,16.384 Z" id="Path"></path>
                <path d="M96.128,30.72 C100.736023,30.72 104.874648,31.3813267 108.544,32.704 C112.213352,34.0266733 115.327987,35.9466541 117.888,38.464 C120.448013,40.9813459 122.41066,44.1173146 123.776,47.872 C125.14134,51.6266854 125.824,55.8506432 125.824,60.544 C125.824,69.8453798 123.306692,77.1413069 118.272,82.432 C113.237308,87.7226931 105.600051,90.368 95.36,90.368 C90.9226445,90.368 86.8480186,89.7920058 83.136,88.64 C79.4239814,87.4879942 76.2666797,85.7600115 73.664,83.456 C71.0613203,81.1519885 69.056007,78.229351 67.648,74.688 C66.239993,71.146649 65.536,66.9866906 65.536,62.208 L80.128,62.208 C80.128,66.3040205 81.2799885,69.6106541 83.584,72.128 C85.8880115,74.6453459 89.6426406,75.904 94.848,75.904 C99.6266906,75.904 103.445319,74.5813466 106.304,71.936 C109.162681,69.2906534 110.592,65.5360243 110.592,60.672 C110.592,57.8559859 110.186671,55.4880096 109.376,53.568 C108.565329,51.6479904 107.413341,50.1120058 105.92,48.96 C104.426659,47.8079942 102.698676,46.9760026 100.736,46.464 C98.7733235,45.9519974 96.6400115,45.696 94.336,45.696 C88.8746394,45.696 84.9493453,47.0186534 82.56,49.664 L67.584,49.664 L67.584,1.92 L121.6,1.92 L121.6,17.152 L83.712,17.152 L83.712,33.152 C84.9920064,32.2986624 86.8053216,31.6800019 89.152,31.296 C91.4986784,30.9119981 93.8239885,30.72 96.128,30.72 Z" id="Path"></path>
            </g>
        </g>
        <polygon id="Rectangle" stroke="#FFD14A" stroke-width="4" fill="#000000" points="131 20 280 20 280 70 131 70"></polygon>
        <path d="M155.525,56.8 L146.375,56.8 L145.125,62 L139.075,62 L147.825,27.95 L154.325,27.95 L162.725,62 L156.725,62 L155.525,56.8 Z M147.575,51.75 L154.375,51.75 L151.225,37.85 L150.875,37.85 L147.575,51.75 Z M172.225,56.25 L190.675,56.25 L190.675,62 L166.225,62 L166.225,27.95 L172.225,27.95 L172.225,56.25 Z M208.425,27.95 C209.725007,27.95 210.941661,28.1916642 212.075,28.675 C213.208339,29.1583357 214.183329,29.8166625 215,30.65 C215.816671,31.4833375 216.466664,32.466661 216.95,33.6 C217.433336,34.733339 217.675,35.933327 217.675,37.2 L217.675,38.7 C217.675,39.966673 217.433336,41.1583277 216.95,42.275 C216.466664,43.3916722 215.816671,44.3749957 215,45.225 C214.183329,46.0750042 213.208339,46.733331 212.075,47.2 C210.941661,47.666669 209.725007,47.9 208.425,47.9 L199.825,47.9 L199.825,62 L193.825,62 L193.825,27.95 L208.425,27.95 Z M199.825,33.9 L199.825,41.95 L207.425,41.95 C208.858341,41.95 209.90833,41.6000035 210.575,40.9 C211.24167,40.1999965 211.575,39.216673 211.575,37.95 C211.575,36.749994 211.24167,35.7750037 210.575,35.025 C209.90833,34.2749963 208.858341,33.9 207.425,33.9 L199.825,33.9 Z M227.875,27.95 L227.875,42.1 L238.825,42.1 L238.825,27.95 L245.125,27.95 L245.125,62 L238.825,62 L238.825,47.8 L227.875,47.8 L227.875,62 L221.525,62 L221.525,27.95 L227.875,27.95 Z M264.075,27.95 L272.475,62 L266.475,62 L265.275,56.8 L256.125,56.8 L254.875,62 L248.825,62 L257.575,27.95 L264.075,27.95 Z M260.975,37.85 L260.625,37.85 L257.325,51.75 L264.125,51.75 L260.975,37.85 Z" id="ALPHA" fill="#FFD14A" fill-rule="nonzero"></path>
    </g>
</svg>